G04 This is an RS-274x file exported by *
G04 gerbv version 2.6A *
G04 More information is available about gerbv at *
G04 http://gerbv.geda-project.org/ *
G04 --End of header info--*
%MOIN*%
%FSLAX34Y34*%
%IPPOS*%
G04 --Define apertures--*
%ADD10C,0.0059*%
%ADD11C,0.0108*%
%ADD12C,0.0157*%
%ADD13C,0.0039*%
G04 --Start main section--*
G54D10*
G01X0010452Y-019305D02*
G01X0010639Y-019424D01*
G01X0010452Y-019508D02*
G01X0010846Y-019508D01*
G01X0010846Y-019508D02*
G01X0010846Y-019373D01*
G01X0010846Y-019373D02*
G01X0010827Y-019339D01*
G01X0010827Y-019339D02*
G01X0010808Y-019322D01*
G01X0010808Y-019322D02*
G01X0010771Y-019305D01*
G01X0010771Y-019305D02*
G01X0010714Y-019305D01*
G01X0010714Y-019305D02*
G01X0010677Y-019322D01*
G01X0010677Y-019322D02*
G01X0010658Y-019339D01*
G01X0010658Y-019339D02*
G01X0010639Y-019373D01*
G01X0010639Y-019373D02*
G01X0010639Y-019508D01*
G01X0010471Y-019019D02*
G01X0010452Y-019052D01*
G01X0010452Y-019052D02*
G01X0010452Y-019120D01*
G01X0010452Y-019120D02*
G01X0010471Y-019154D01*
G01X0010471Y-019154D02*
G01X0010508Y-019170D01*
G01X0010508Y-019170D02*
G01X0010658Y-019170D01*
G01X0010658Y-019170D02*
G01X0010696Y-019154D01*
G01X0010696Y-019154D02*
G01X0010714Y-019120D01*
G01X0010714Y-019120D02*
G01X0010714Y-019052D01*
G01X0010714Y-019052D02*
G01X0010696Y-019019D01*
G01X0010696Y-019019D02*
G01X0010658Y-019002D01*
G01X0010658Y-019002D02*
G01X0010621Y-019002D01*
G01X0010621Y-019002D02*
G01X0010583Y-019170D01*
G01X0010714Y-018884D02*
G01X0010452Y-018799D01*
G01X0010452Y-018799D02*
G01X0010714Y-018715D01*
G01X0010452Y-018580D02*
G01X0010714Y-018580D01*
G01X0010846Y-018580D02*
G01X0010827Y-018597D01*
G01X0010827Y-018597D02*
G01X0010808Y-018580D01*
G01X0010808Y-018580D02*
G01X0010827Y-018563D01*
G01X0010827Y-018563D02*
G01X0010846Y-018580D01*
G01X0010846Y-018580D02*
G01X0010808Y-018580D01*
G01X0010471Y-018428D02*
G01X0010452Y-018394D01*
G01X0010452Y-018394D02*
G01X0010452Y-018327D01*
G01X0010452Y-018327D02*
G01X0010471Y-018293D01*
G01X0010471Y-018293D02*
G01X0010508Y-018276D01*
G01X0010508Y-018276D02*
G01X0010527Y-018276D01*
G01X0010527Y-018276D02*
G01X0010564Y-018293D01*
G01X0010564Y-018293D02*
G01X0010583Y-018327D01*
G01X0010583Y-018327D02*
G01X0010583Y-018377D01*
G01X0010583Y-018377D02*
G01X0010602Y-018411D01*
G01X0010602Y-018411D02*
G01X0010639Y-018428D01*
G01X0010639Y-018428D02*
G01X0010658Y-018428D01*
G01X0010658Y-018428D02*
G01X0010696Y-018411D01*
G01X0010696Y-018411D02*
G01X0010714Y-018377D01*
G01X0010714Y-018377D02*
G01X0010714Y-018327D01*
G01X0010714Y-018327D02*
G01X0010696Y-018293D01*
G01X0010452Y-018124D02*
G01X0010714Y-018124D01*
G01X0010846Y-018124D02*
G01X0010827Y-018141D01*
G01X0010827Y-018141D02*
G01X0010808Y-018124D01*
G01X0010808Y-018124D02*
G01X0010827Y-018107D01*
G01X0010827Y-018107D02*
G01X0010846Y-018124D01*
G01X0010846Y-018124D02*
G01X0010808Y-018124D01*
G01X0010452Y-017905D02*
G01X0010471Y-017939D01*
G01X0010471Y-017939D02*
G01X0010489Y-017956D01*
G01X0010489Y-017956D02*
G01X0010527Y-017972D01*
G01X0010527Y-017972D02*
G01X0010639Y-017972D01*
G01X0010639Y-017972D02*
G01X0010677Y-017956D01*
G01X0010677Y-017956D02*
G01X0010696Y-017939D01*
G01X0010696Y-017939D02*
G01X0010714Y-017905D01*
G01X0010714Y-017905D02*
G01X0010714Y-017854D01*
G01X0010714Y-017854D02*
G01X0010696Y-017821D01*
G01X0010696Y-017821D02*
G01X0010677Y-017804D01*
G01X0010677Y-017804D02*
G01X0010639Y-017787D01*
G01X0010639Y-017787D02*
G01X0010527Y-017787D01*
G01X0010527Y-017787D02*
G01X0010489Y-017804D01*
G01X0010489Y-017804D02*
G01X0010471Y-017821D01*
G01X0010471Y-017821D02*
G01X0010452Y-017854D01*
G01X0010452Y-017854D02*
G01X0010452Y-017905D01*
G01X0010714Y-017635D02*
G01X0010452Y-017635D01*
G01X0010677Y-017635D02*
G01X0010696Y-017618D01*
G01X0010696Y-017618D02*
G01X0010714Y-017584D01*
G01X0010714Y-017584D02*
G01X0010714Y-017534D01*
G01X0010714Y-017534D02*
G01X0010696Y-017500D01*
G01X0010696Y-017500D02*
G01X0010658Y-017483D01*
G01X0010658Y-017483D02*
G01X0010452Y-017483D01*
G01X0010564Y-017061D02*
G01X0010564Y-016893D01*
G01X0010452Y-017095D02*
G01X0010846Y-016977D01*
G01X0010846Y-016977D02*
G01X0010452Y-016859D01*
G54D11*
G01X0027580Y-015304D02*
G01X0027145Y-015304D01*
G01X0028662Y-015304D02*
G01X0028227Y-015304D01*
G01X0028445Y-015559D02*
G01X0028445Y-015049D01*
G54D12*
G01X0019334Y-009931D02*
G01X0019334Y-009301D01*
G01X0019334Y-009301D02*
G01X0018952Y-009931D01*
G01X0018952Y-009931D02*
G01X0018952Y-009301D01*
G01X0018665Y-009751D02*
G01X0018346Y-009751D01*
G01X0018729Y-009931D02*
G01X0018506Y-009301D01*
G01X0018506Y-009301D02*
G01X0018283Y-009931D01*
G01X0018060Y-009931D02*
G01X0018060Y-009301D01*
G01X0018060Y-009301D02*
G01X0017677Y-009931D01*
G01X0017677Y-009931D02*
G01X0017677Y-009301D01*
G01X0017358Y-009931D02*
G01X0017358Y-009301D01*
G01X0017358Y-009301D02*
G01X0017199Y-009301D01*
G01X0017199Y-009301D02*
G01X0017103Y-009331D01*
G01X0017103Y-009331D02*
G01X0017040Y-009391D01*
G01X0017040Y-009391D02*
G01X0017008Y-009451D01*
G01X0017008Y-009451D02*
G01X0016976Y-009571D01*
G01X0016976Y-009571D02*
G01X0016976Y-009661D01*
G01X0016976Y-009661D02*
G01X0017008Y-009781D01*
G01X0017008Y-009781D02*
G01X0017040Y-009841D01*
G01X0017040Y-009841D02*
G01X0017103Y-009901D01*
G01X0017103Y-009901D02*
G01X0017199Y-009931D01*
G01X0017199Y-009931D02*
G01X0017358Y-009931D01*
G01X0016307Y-009871D02*
G01X0016339Y-009901D01*
G01X0016339Y-009901D02*
G01X0016434Y-009931D01*
G01X0016434Y-009931D02*
G01X0016498Y-009931D01*
G01X0016498Y-009931D02*
G01X0016594Y-009901D01*
G01X0016594Y-009901D02*
G01X0016657Y-009841D01*
G01X0016657Y-009841D02*
G01X0016689Y-009781D01*
G01X0016689Y-009781D02*
G01X0016721Y-009661D01*
G01X0016721Y-009661D02*
G01X0016721Y-009571D01*
G01X0016721Y-009571D02*
G01X0016689Y-009451D01*
G01X0016689Y-009451D02*
G01X0016657Y-009391D01*
G01X0016657Y-009391D02*
G01X0016594Y-009331D01*
G01X0016594Y-009331D02*
G01X0016498Y-009301D01*
G01X0016498Y-009301D02*
G01X0016434Y-009301D01*
G01X0016434Y-009301D02*
G01X0016339Y-009331D01*
G01X0016339Y-009331D02*
G01X0016307Y-009361D01*
G01X0016052Y-009751D02*
G01X0015733Y-009751D01*
G01X0016115Y-009931D02*
G01X0015892Y-009301D01*
G01X0015892Y-009301D02*
G01X0015669Y-009931D01*
G01X0015542Y-009301D02*
G01X0015159Y-009301D01*
G01X0015351Y-009931D02*
G01X0015351Y-009301D01*
G01X0014936Y-009871D02*
G01X0014904Y-009901D01*
G01X0014904Y-009901D02*
G01X0014936Y-009931D01*
G01X0014936Y-009931D02*
G01X0014968Y-009901D01*
G01X0014968Y-009901D02*
G01X0014936Y-009871D01*
G01X0014936Y-009871D02*
G01X0014936Y-009931D01*
G01X0014936Y-009691D02*
G01X0014968Y-009331D01*
G01X0014968Y-009331D02*
G01X0014936Y-009301D01*
G01X0014936Y-009301D02*
G01X0014904Y-009331D01*
G01X0014904Y-009331D02*
G01X0014936Y-009691D01*
G01X0014936Y-009691D02*
G01X0014936Y-009301D01*
G01X0014618Y-009871D02*
G01X0014586Y-009901D01*
G01X0014586Y-009901D02*
G01X0014618Y-009931D01*
G01X0014618Y-009931D02*
G01X0014649Y-009901D01*
G01X0014649Y-009901D02*
G01X0014618Y-009871D01*
G01X0014618Y-009871D02*
G01X0014618Y-009931D01*
G01X0014618Y-009691D02*
G01X0014649Y-009331D01*
G01X0014649Y-009331D02*
G01X0014618Y-009301D01*
G01X0014618Y-009301D02*
G01X0014586Y-009331D01*
G01X0014586Y-009331D02*
G01X0014618Y-009691D01*
G01X0014618Y-009691D02*
G01X0014618Y-009301D01*
G01X0014299Y-009871D02*
G01X0014267Y-009901D01*
G01X0014267Y-009901D02*
G01X0014299Y-009931D01*
G01X0014299Y-009931D02*
G01X0014331Y-009901D01*
G01X0014331Y-009901D02*
G01X0014299Y-009871D01*
G01X0014299Y-009871D02*
G01X0014299Y-009931D01*
G01X0014299Y-009691D02*
G01X0014331Y-009331D01*
G01X0014331Y-009331D02*
G01X0014299Y-009301D01*
G01X0014299Y-009301D02*
G01X0014267Y-009331D01*
G01X0014267Y-009331D02*
G01X0014299Y-009691D01*
G01X0014299Y-009691D02*
G01X0014299Y-009301D01*
G01X0013630Y-009931D02*
G01X0014012Y-009931D01*
G01X0013821Y-009931D02*
G01X0013821Y-009301D01*
G01X0013821Y-009301D02*
G01X0013885Y-009391D01*
G01X0013885Y-009391D02*
G01X0013948Y-009451D01*
G01X0013948Y-009451D02*
G01X0014012Y-009481D01*
G01X0013343Y-009871D02*
G01X0013311Y-009901D01*
G01X0013311Y-009901D02*
G01X0013343Y-009931D01*
G01X0013343Y-009931D02*
G01X0013375Y-009901D01*
G01X0013375Y-009901D02*
G01X0013343Y-009871D01*
G01X0013343Y-009871D02*
G01X0013343Y-009931D01*
G01X0013343Y-009691D02*
G01X0013375Y-009331D01*
G01X0013375Y-009331D02*
G01X0013343Y-009301D01*
G01X0013343Y-009301D02*
G01X0013311Y-009331D01*
G01X0013311Y-009331D02*
G01X0013343Y-009691D01*
G01X0013343Y-009691D02*
G01X0013343Y-009301D01*
G54D10*
G01X0018782Y-018404D02*
G01X0018803Y-018382D01*
G01X0018803Y-018382D02*
G01X0018844Y-018359D01*
G01X0018844Y-018359D02*
G01X0018885Y-018359D01*
G01X0018885Y-018359D02*
G01X0018927Y-018382D01*
G01X0018927Y-018382D02*
G01X0018947Y-018404D01*
G01X0018947Y-018404D02*
G01X0018968Y-018449D01*
G01X0018968Y-018449D02*
G01X0018968Y-018494D01*
G01X0018968Y-018494D02*
G01X0018947Y-018539D01*
G01X0018947Y-018539D02*
G01X0018927Y-018562D01*
G01X0018927Y-018562D02*
G01X0018885Y-018584D01*
G01X0018885Y-018584D02*
G01X0018844Y-018584D01*
G01X0018844Y-018584D02*
G01X0018803Y-018562D01*
G01X0018803Y-018562D02*
G01X0018782Y-018539D01*
G01X0018782Y-018359D02*
G01X0018782Y-018539D01*
G01X0018782Y-018539D02*
G01X0018762Y-018562D01*
G01X0018762Y-018562D02*
G01X0018741Y-018562D01*
G01X0018741Y-018562D02*
G01X0018700Y-018539D01*
G01X0018700Y-018539D02*
G01X0018679Y-018494D01*
G01X0018679Y-018494D02*
G01X0018679Y-018382D01*
G01X0018679Y-018382D02*
G01X0018720Y-018314D01*
G01X0018720Y-018314D02*
G01X0018782Y-018269D01*
G01X0018782Y-018269D02*
G01X0018865Y-018247D01*
G01X0018865Y-018247D02*
G01X0018947Y-018269D01*
G01X0018947Y-018269D02*
G01X0019009Y-018314D01*
G01X0019009Y-018314D02*
G01X0019050Y-018382D01*
G01X0019050Y-018382D02*
G01X0019071Y-018472D01*
G01X0019071Y-018472D02*
G01X0019050Y-018562D01*
G01X0019050Y-018562D02*
G01X0019009Y-018629D01*
G01X0019009Y-018629D02*
G01X0018947Y-018674D01*
G01X0018947Y-018674D02*
G01X0018865Y-018697D01*
G01X0018865Y-018697D02*
G01X0018782Y-018674D01*
G01X0018782Y-018674D02*
G01X0018720Y-018629D01*
G01X0018411Y-018157D02*
G01X0018329Y-018157D01*
G01X0018329Y-018157D02*
G01X0018287Y-018179D01*
G01X0018287Y-018179D02*
G01X0018246Y-018224D01*
G01X0018246Y-018224D02*
G01X0018226Y-018314D01*
G01X0018226Y-018314D02*
G01X0018226Y-018472D01*
G01X0018226Y-018472D02*
G01X0018246Y-018562D01*
G01X0018246Y-018562D02*
G01X0018287Y-018607D01*
G01X0018287Y-018607D02*
G01X0018329Y-018629D01*
G01X0018329Y-018629D02*
G01X0018411Y-018629D01*
G01X0018411Y-018629D02*
G01X0018452Y-018607D01*
G01X0018452Y-018607D02*
G01X0018494Y-018562D01*
G01X0018494Y-018562D02*
G01X0018514Y-018472D01*
G01X0018514Y-018472D02*
G01X0018514Y-018314D01*
G01X0018514Y-018314D02*
G01X0018494Y-018224D01*
G01X0018494Y-018224D02*
G01X0018452Y-018179D01*
G01X0018452Y-018179D02*
G01X0018411Y-018157D01*
G01X0018040Y-018629D02*
G01X0018040Y-018314D01*
G01X0018040Y-018359D02*
G01X0018019Y-018337D01*
G01X0018019Y-018337D02*
G01X0017978Y-018314D01*
G01X0017978Y-018314D02*
G01X0017916Y-018314D01*
G01X0017916Y-018314D02*
G01X0017875Y-018337D01*
G01X0017875Y-018337D02*
G01X0017854Y-018382D01*
G01X0017854Y-018382D02*
G01X0017854Y-018629D01*
G01X0017854Y-018382D02*
G01X0017834Y-018337D01*
G01X0017834Y-018337D02*
G01X0017792Y-018314D01*
G01X0017792Y-018314D02*
G01X0017731Y-018314D01*
G01X0017731Y-018314D02*
G01X0017689Y-018337D01*
G01X0017689Y-018337D02*
G01X0017669Y-018382D01*
G01X0017669Y-018382D02*
G01X0017669Y-018629D01*
G01X0017298Y-018607D02*
G01X0017339Y-018629D01*
G01X0017339Y-018629D02*
G01X0017421Y-018629D01*
G01X0017421Y-018629D02*
G01X0017463Y-018607D01*
G01X0017463Y-018607D02*
G01X0017483Y-018562D01*
G01X0017483Y-018562D02*
G01X0017483Y-018382D01*
G01X0017483Y-018382D02*
G01X0017463Y-018337D01*
G01X0017463Y-018337D02*
G01X0017421Y-018314D01*
G01X0017421Y-018314D02*
G01X0017339Y-018314D01*
G01X0017339Y-018314D02*
G01X0017298Y-018337D01*
G01X0017298Y-018337D02*
G01X0017277Y-018382D01*
G01X0017277Y-018382D02*
G01X0017277Y-018427D01*
G01X0017277Y-018427D02*
G01X0017483Y-018472D01*
G01X0017091Y-018629D02*
G01X0017091Y-018314D01*
G01X0017091Y-018404D02*
G01X0017071Y-018359D01*
G01X0017071Y-018359D02*
G01X0017050Y-018337D01*
G01X0017050Y-018337D02*
G01X0017009Y-018314D01*
G01X0017009Y-018314D02*
G01X0016968Y-018314D01*
G01X0016823Y-018629D02*
G01X0016823Y-018157D01*
G01X0016576Y-018629D02*
G01X0016761Y-018359D01*
G01X0016576Y-018157D02*
G01X0016823Y-018427D01*
G01X0016370Y-018607D02*
G01X0016370Y-018629D01*
G01X0016370Y-018629D02*
G01X0016390Y-018674D01*
G01X0016390Y-018674D02*
G01X0016411Y-018697D01*
G01X0015771Y-018157D02*
G01X0015689Y-018157D01*
G01X0015689Y-018157D02*
G01X0015648Y-018179D01*
G01X0015648Y-018179D02*
G01X0015606Y-018224D01*
G01X0015606Y-018224D02*
G01X0015586Y-018314D01*
G01X0015586Y-018314D02*
G01X0015586Y-018472D01*
G01X0015586Y-018472D02*
G01X0015606Y-018562D01*
G01X0015606Y-018562D02*
G01X0015648Y-018607D01*
G01X0015648Y-018607D02*
G01X0015689Y-018629D01*
G01X0015689Y-018629D02*
G01X0015771Y-018629D01*
G01X0015771Y-018629D02*
G01X0015813Y-018607D01*
G01X0015813Y-018607D02*
G01X0015854Y-018562D01*
G01X0015854Y-018562D02*
G01X0015875Y-018472D01*
G01X0015875Y-018472D02*
G01X0015875Y-018314D01*
G01X0015875Y-018314D02*
G01X0015854Y-018224D01*
G01X0015854Y-018224D02*
G01X0015813Y-018179D01*
G01X0015813Y-018179D02*
G01X0015771Y-018157D01*
G01X0015215Y-018607D02*
G01X0015256Y-018629D01*
G01X0015256Y-018629D02*
G01X0015338Y-018629D01*
G01X0015338Y-018629D02*
G01X0015380Y-018607D01*
G01X0015380Y-018607D02*
G01X0015400Y-018584D01*
G01X0015400Y-018584D02*
G01X0015421Y-018539D01*
G01X0015421Y-018539D02*
G01X0015421Y-018404D01*
G01X0015421Y-018404D02*
G01X0015400Y-018359D01*
G01X0015400Y-018359D02*
G01X0015380Y-018337D01*
G01X0015380Y-018337D02*
G01X0015338Y-018314D01*
G01X0015338Y-018314D02*
G01X0015256Y-018314D01*
G01X0015256Y-018314D02*
G01X0015215Y-018337D01*
G01X0015091Y-018314D02*
G01X0014926Y-018314D01*
G01X0015029Y-018157D02*
G01X0015029Y-018562D01*
G01X0015029Y-018562D02*
G01X0015008Y-018607D01*
G01X0015008Y-018607D02*
G01X0014967Y-018629D01*
G01X0014967Y-018629D02*
G01X0014926Y-018629D01*
G01X0014431Y-018157D02*
G01X0014472Y-018247D01*
G01X0014019Y-018629D02*
G01X0014266Y-018629D01*
G01X0014142Y-018629D02*
G01X0014142Y-018157D01*
G01X0014142Y-018157D02*
G01X0014184Y-018224D01*
G01X0014184Y-018224D02*
G01X0014225Y-018269D01*
G01X0014225Y-018269D02*
G01X0014266Y-018292D01*
G01X0013812Y-018629D02*
G01X0013730Y-018629D01*
G01X0013730Y-018629D02*
G01X0013689Y-018607D01*
G01X0013689Y-018607D02*
G01X0013668Y-018584D01*
G01X0013668Y-018584D02*
G01X0013627Y-018517D01*
G01X0013627Y-018517D02*
G01X0013606Y-018427D01*
G01X0013606Y-018427D02*
G01X0013606Y-018247D01*
G01X0013606Y-018247D02*
G01X0013627Y-018202D01*
G01X0013627Y-018202D02*
G01X0013647Y-018179D01*
G01X0013647Y-018179D02*
G01X0013689Y-018157D01*
G01X0013689Y-018157D02*
G01X0013771Y-018157D01*
G01X0013771Y-018157D02*
G01X0013812Y-018179D01*
G01X0013812Y-018179D02*
G01X0013833Y-018202D01*
G01X0013833Y-018202D02*
G01X0013854Y-018247D01*
G01X0013854Y-018247D02*
G01X0013854Y-018359D01*
G01X0013854Y-018359D02*
G01X0013833Y-018404D01*
G01X0013833Y-018404D02*
G01X0013812Y-018427D01*
G01X0013812Y-018427D02*
G01X0013771Y-018449D01*
G01X0013771Y-018449D02*
G01X0013689Y-018449D01*
G01X0013689Y-018449D02*
G01X0013647Y-018427D01*
G01X0013647Y-018427D02*
G01X0013627Y-018404D01*
G01X0013627Y-018404D02*
G01X0013606Y-018359D01*
G01X0018968Y-019262D02*
G01X0018762Y-019262D01*
G01X0019009Y-019397D02*
G01X0018865Y-018924D01*
G01X0018865Y-018924D02*
G01X0018720Y-019397D01*
G01X0018576Y-019397D02*
G01X0018576Y-019082D01*
G01X0018576Y-019172D02*
G01X0018555Y-019127D01*
G01X0018555Y-019127D02*
G01X0018535Y-019104D01*
G01X0018535Y-019104D02*
G01X0018494Y-019082D01*
G01X0018494Y-019082D02*
G01X0018452Y-019082D01*
G01X0018370Y-019082D02*
G01X0018205Y-019082D01*
G01X0018308Y-018924D02*
G01X0018308Y-019329D01*
G01X0018308Y-019329D02*
G01X0018287Y-019374D01*
G01X0018287Y-019374D02*
G01X0018246Y-019397D01*
G01X0018246Y-019397D02*
G01X0018205Y-019397D01*
G01X0018102Y-019082D02*
G01X0018019Y-019397D01*
G01X0018019Y-019397D02*
G01X0017937Y-019172D01*
G01X0017937Y-019172D02*
G01X0017854Y-019397D01*
G01X0017854Y-019397D02*
G01X0017772Y-019082D01*
G01X0017545Y-019397D02*
G01X0017586Y-019374D01*
G01X0017586Y-019374D02*
G01X0017607Y-019352D01*
G01X0017607Y-019352D02*
G01X0017627Y-019307D01*
G01X0017627Y-019307D02*
G01X0017627Y-019172D01*
G01X0017627Y-019172D02*
G01X0017607Y-019127D01*
G01X0017607Y-019127D02*
G01X0017586Y-019104D01*
G01X0017586Y-019104D02*
G01X0017545Y-019082D01*
G01X0017545Y-019082D02*
G01X0017483Y-019082D01*
G01X0017483Y-019082D02*
G01X0017442Y-019104D01*
G01X0017442Y-019104D02*
G01X0017421Y-019127D01*
G01X0017421Y-019127D02*
G01X0017401Y-019172D01*
G01X0017401Y-019172D02*
G01X0017401Y-019307D01*
G01X0017401Y-019307D02*
G01X0017421Y-019352D01*
G01X0017421Y-019352D02*
G01X0017442Y-019374D01*
G01X0017442Y-019374D02*
G01X0017483Y-019397D01*
G01X0017483Y-019397D02*
G01X0017545Y-019397D01*
G01X0017215Y-019397D02*
G01X0017215Y-019082D01*
G01X0017215Y-019172D02*
G01X0017194Y-019127D01*
G01X0017194Y-019127D02*
G01X0017174Y-019104D01*
G01X0017174Y-019104D02*
G01X0017133Y-019082D01*
G01X0017133Y-019082D02*
G01X0017091Y-019082D01*
G01X0016947Y-019397D02*
G01X0016947Y-018924D01*
G01X0016906Y-019217D02*
G01X0016782Y-019397D01*
G01X0016782Y-019082D02*
G01X0016947Y-019262D01*
G01X0016266Y-019397D02*
G01X0016266Y-018924D01*
G01X0016266Y-019104D02*
G01X0016225Y-019082D01*
G01X0016225Y-019082D02*
G01X0016143Y-019082D01*
G01X0016143Y-019082D02*
G01X0016101Y-019104D01*
G01X0016101Y-019104D02*
G01X0016081Y-019127D01*
G01X0016081Y-019127D02*
G01X0016060Y-019172D01*
G01X0016060Y-019172D02*
G01X0016060Y-019307D01*
G01X0016060Y-019307D02*
G01X0016081Y-019352D01*
G01X0016081Y-019352D02*
G01X0016101Y-019374D01*
G01X0016101Y-019374D02*
G01X0016143Y-019397D01*
G01X0016143Y-019397D02*
G01X0016225Y-019397D01*
G01X0016225Y-019397D02*
G01X0016266Y-019374D01*
G01X0015916Y-019082D02*
G01X0015813Y-019397D01*
G01X0015710Y-019082D02*
G01X0015813Y-019397D01*
G01X0015813Y-019397D02*
G01X0015854Y-019509D01*
G01X0015854Y-019509D02*
G01X0015875Y-019532D01*
G01X0015875Y-019532D02*
G01X0015916Y-019554D01*
G01X0014947Y-019172D02*
G01X0014967Y-019149D01*
G01X0014967Y-019149D02*
G01X0015008Y-019127D01*
G01X0015008Y-019127D02*
G01X0015050Y-019127D01*
G01X0015050Y-019127D02*
G01X0015091Y-019149D01*
G01X0015091Y-019149D02*
G01X0015112Y-019172D01*
G01X0015112Y-019172D02*
G01X0015132Y-019217D01*
G01X0015132Y-019217D02*
G01X0015132Y-019262D01*
G01X0015132Y-019262D02*
G01X0015112Y-019307D01*
G01X0015112Y-019307D02*
G01X0015091Y-019329D01*
G01X0015091Y-019329D02*
G01X0015050Y-019352D01*
G01X0015050Y-019352D02*
G01X0015008Y-019352D01*
G01X0015008Y-019352D02*
G01X0014967Y-019329D01*
G01X0014967Y-019329D02*
G01X0014947Y-019307D01*
G01X0014947Y-019127D02*
G01X0014947Y-019307D01*
G01X0014947Y-019307D02*
G01X0014926Y-019329D01*
G01X0014926Y-019329D02*
G01X0014905Y-019329D01*
G01X0014905Y-019329D02*
G01X0014864Y-019307D01*
G01X0014864Y-019307D02*
G01X0014843Y-019262D01*
G01X0014843Y-019262D02*
G01X0014843Y-019149D01*
G01X0014843Y-019149D02*
G01X0014885Y-019082D01*
G01X0014885Y-019082D02*
G01X0014947Y-019037D01*
G01X0014947Y-019037D02*
G01X0015029Y-019014D01*
G01X0015029Y-019014D02*
G01X0015112Y-019037D01*
G01X0015112Y-019037D02*
G01X0015173Y-019082D01*
G01X0015173Y-019082D02*
G01X0015215Y-019149D01*
G01X0015215Y-019149D02*
G01X0015235Y-019239D01*
G01X0015235Y-019239D02*
G01X0015215Y-019329D01*
G01X0015215Y-019329D02*
G01X0015173Y-019397D01*
G01X0015173Y-019397D02*
G01X0015112Y-019442D01*
G01X0015112Y-019442D02*
G01X0015029Y-019464D01*
G01X0015029Y-019464D02*
G01X0014947Y-019442D01*
G01X0014947Y-019442D02*
G01X0014885Y-019397D01*
G01X0014658Y-019082D02*
G01X0014658Y-019554D01*
G01X0014658Y-019104D02*
G01X0014617Y-019082D01*
G01X0014617Y-019082D02*
G01X0014534Y-019082D01*
G01X0014534Y-019082D02*
G01X0014493Y-019104D01*
G01X0014493Y-019104D02*
G01X0014472Y-019127D01*
G01X0014472Y-019127D02*
G01X0014452Y-019172D01*
G01X0014452Y-019172D02*
G01X0014452Y-019307D01*
G01X0014452Y-019307D02*
G01X0014472Y-019352D01*
G01X0014472Y-019352D02*
G01X0014493Y-019374D01*
G01X0014493Y-019374D02*
G01X0014534Y-019397D01*
G01X0014534Y-019397D02*
G01X0014617Y-019397D01*
G01X0014617Y-019397D02*
G01X0014658Y-019374D01*
G01X0014287Y-019374D02*
G01X0014245Y-019397D01*
G01X0014245Y-019397D02*
G01X0014163Y-019397D01*
G01X0014163Y-019397D02*
G01X0014122Y-019374D01*
G01X0014122Y-019374D02*
G01X0014101Y-019329D01*
G01X0014101Y-019329D02*
G01X0014101Y-019307D01*
G01X0014101Y-019307D02*
G01X0014122Y-019262D01*
G01X0014122Y-019262D02*
G01X0014163Y-019239D01*
G01X0014163Y-019239D02*
G01X0014225Y-019239D01*
G01X0014225Y-019239D02*
G01X0014266Y-019217D01*
G01X0014266Y-019217D02*
G01X0014287Y-019172D01*
G01X0014287Y-019172D02*
G01X0014287Y-019149D01*
G01X0014287Y-019149D02*
G01X0014266Y-019104D01*
G01X0014266Y-019104D02*
G01X0014225Y-019082D01*
G01X0014225Y-019082D02*
G01X0014163Y-019082D01*
G01X0014163Y-019082D02*
G01X0014122Y-019104D01*
G01X0013730Y-019397D02*
G01X0013730Y-018924D01*
G01X0013730Y-019374D02*
G01X0013771Y-019397D01*
G01X0013771Y-019397D02*
G01X0013854Y-019397D01*
G01X0013854Y-019397D02*
G01X0013895Y-019374D01*
G01X0013895Y-019374D02*
G01X0013915Y-019352D01*
G01X0013915Y-019352D02*
G01X0013936Y-019307D01*
G01X0013936Y-019307D02*
G01X0013936Y-019172D01*
G01X0013936Y-019172D02*
G01X0013915Y-019127D01*
G01X0013915Y-019127D02*
G01X0013895Y-019104D01*
G01X0013895Y-019104D02*
G01X0013854Y-019082D01*
G01X0013854Y-019082D02*
G01X0013771Y-019082D01*
G01X0013771Y-019082D02*
G01X0013730Y-019104D01*
G01X0022357Y-010745D02*
G01X0022357Y-010273D01*
G01X0022171Y-010745D02*
G01X0022171Y-010498D01*
G01X0022171Y-010498D02*
G01X0022192Y-010453D01*
G01X0022192Y-010453D02*
G01X0022233Y-010430D01*
G01X0022233Y-010430D02*
G01X0022295Y-010430D01*
G01X0022295Y-010430D02*
G01X0022336Y-010453D01*
G01X0022336Y-010453D02*
G01X0022357Y-010475D01*
G01X0022027Y-010430D02*
G01X0021862Y-010430D01*
G01X0021965Y-010273D02*
G01X0021965Y-010678D01*
G01X0021965Y-010678D02*
G01X0021944Y-010723D01*
G01X0021944Y-010723D02*
G01X0021903Y-010745D01*
G01X0021903Y-010745D02*
G01X0021862Y-010745D01*
G01X0021779Y-010430D02*
G01X0021614Y-010430D01*
G01X0021717Y-010273D02*
G01X0021717Y-010678D01*
G01X0021717Y-010678D02*
G01X0021697Y-010723D01*
G01X0021697Y-010723D02*
G01X0021655Y-010745D01*
G01X0021655Y-010745D02*
G01X0021614Y-010745D01*
G01X0021470Y-010430D02*
G01X0021470Y-010903D01*
G01X0021470Y-010453D02*
G01X0021429Y-010430D01*
G01X0021429Y-010430D02*
G01X0021346Y-010430D01*
G01X0021346Y-010430D02*
G01X0021305Y-010453D01*
G01X0021305Y-010453D02*
G01X0021284Y-010475D01*
G01X0021284Y-010475D02*
G01X0021264Y-010520D01*
G01X0021264Y-010520D02*
G01X0021264Y-010655D01*
G01X0021264Y-010655D02*
G01X0021284Y-010700D01*
G01X0021284Y-010700D02*
G01X0021305Y-010723D01*
G01X0021305Y-010723D02*
G01X0021346Y-010745D01*
G01X0021346Y-010745D02*
G01X0021429Y-010745D01*
G01X0021429Y-010745D02*
G01X0021470Y-010723D01*
G01X0021078Y-010700D02*
G01X0021057Y-010723D01*
G01X0021057Y-010723D02*
G01X0021078Y-010745D01*
G01X0021078Y-010745D02*
G01X0021099Y-010723D01*
G01X0021099Y-010723D02*
G01X0021078Y-010700D01*
G01X0021078Y-010700D02*
G01X0021078Y-010745D01*
G01X0021078Y-010453D02*
G01X0021057Y-010475D01*
G01X0021057Y-010475D02*
G01X0021078Y-010498D01*
G01X0021078Y-010498D02*
G01X0021099Y-010475D01*
G01X0021099Y-010475D02*
G01X0021078Y-010453D01*
G01X0021078Y-010453D02*
G01X0021078Y-010498D01*
G01X0020562Y-010250D02*
G01X0020934Y-010858D01*
G01X0020109Y-010250D02*
G01X0020480Y-010858D01*
G01X0019799Y-010723D02*
G01X0019841Y-010745D01*
G01X0019841Y-010745D02*
G01X0019923Y-010745D01*
G01X0019923Y-010745D02*
G01X0019964Y-010723D01*
G01X0019964Y-010723D02*
G01X0019985Y-010678D01*
G01X0019985Y-010678D02*
G01X0019985Y-010498D01*
G01X0019985Y-010498D02*
G01X0019964Y-010453D01*
G01X0019964Y-010453D02*
G01X0019923Y-010430D01*
G01X0019923Y-010430D02*
G01X0019841Y-010430D01*
G01X0019841Y-010430D02*
G01X0019799Y-010453D01*
G01X0019799Y-010453D02*
G01X0019779Y-010498D01*
G01X0019779Y-010498D02*
G01X0019779Y-010543D01*
G01X0019779Y-010543D02*
G01X0019985Y-010588D01*
G01X0019531Y-010745D02*
G01X0019573Y-010723D01*
G01X0019573Y-010723D02*
G01X0019593Y-010678D01*
G01X0019593Y-010678D02*
G01X0019593Y-010273D01*
G01X0019201Y-010723D02*
G01X0019243Y-010745D01*
G01X0019243Y-010745D02*
G01X0019325Y-010745D01*
G01X0019325Y-010745D02*
G01X0019366Y-010723D01*
G01X0019366Y-010723D02*
G01X0019387Y-010678D01*
G01X0019387Y-010678D02*
G01X0019387Y-010498D01*
G01X0019387Y-010498D02*
G01X0019366Y-010453D01*
G01X0019366Y-010453D02*
G01X0019325Y-010430D01*
G01X0019325Y-010430D02*
G01X0019243Y-010430D01*
G01X0019243Y-010430D02*
G01X0019201Y-010453D01*
G01X0019201Y-010453D02*
G01X0019181Y-010498D01*
G01X0019181Y-010498D02*
G01X0019181Y-010543D01*
G01X0019181Y-010543D02*
G01X0019387Y-010588D01*
G01X0018810Y-010723D02*
G01X0018851Y-010745D01*
G01X0018851Y-010745D02*
G01X0018933Y-010745D01*
G01X0018933Y-010745D02*
G01X0018975Y-010723D01*
G01X0018975Y-010723D02*
G01X0018995Y-010700D01*
G01X0018995Y-010700D02*
G01X0019016Y-010655D01*
G01X0019016Y-010655D02*
G01X0019016Y-010520D01*
G01X0019016Y-010520D02*
G01X0018995Y-010475D01*
G01X0018995Y-010475D02*
G01X0018975Y-010453D01*
G01X0018975Y-010453D02*
G01X0018933Y-010430D01*
G01X0018933Y-010430D02*
G01X0018851Y-010430D01*
G01X0018851Y-010430D02*
G01X0018810Y-010453D01*
G01X0018686Y-010430D02*
G01X0018521Y-010430D01*
G01X0018624Y-010273D02*
G01X0018624Y-010678D01*
G01X0018624Y-010678D02*
G01X0018603Y-010723D01*
G01X0018603Y-010723D02*
G01X0018562Y-010745D01*
G01X0018562Y-010745D02*
G01X0018521Y-010745D01*
G01X0018376Y-010745D02*
G01X0018376Y-010430D01*
G01X0018376Y-010520D02*
G01X0018356Y-010475D01*
G01X0018356Y-010475D02*
G01X0018335Y-010453D01*
G01X0018335Y-010453D02*
G01X0018294Y-010430D01*
G01X0018294Y-010430D02*
G01X0018253Y-010430D01*
G01X0018046Y-010745D02*
G01X0018088Y-010723D01*
G01X0018088Y-010723D02*
G01X0018108Y-010700D01*
G01X0018108Y-010700D02*
G01X0018129Y-010655D01*
G01X0018129Y-010655D02*
G01X0018129Y-010520D01*
G01X0018129Y-010520D02*
G01X0018108Y-010475D01*
G01X0018108Y-010475D02*
G01X0018088Y-010453D01*
G01X0018088Y-010453D02*
G01X0018046Y-010430D01*
G01X0018046Y-010430D02*
G01X0017985Y-010430D01*
G01X0017985Y-010430D02*
G01X0017943Y-010453D01*
G01X0017943Y-010453D02*
G01X0017923Y-010475D01*
G01X0017923Y-010475D02*
G01X0017902Y-010520D01*
G01X0017902Y-010520D02*
G01X0017902Y-010655D01*
G01X0017902Y-010655D02*
G01X0017923Y-010700D01*
G01X0017923Y-010700D02*
G01X0017943Y-010723D01*
G01X0017943Y-010723D02*
G01X0017985Y-010745D01*
G01X0017985Y-010745D02*
G01X0018046Y-010745D01*
G01X0017655Y-010745D02*
G01X0017696Y-010723D01*
G01X0017696Y-010723D02*
G01X0017717Y-010678D01*
G01X0017717Y-010678D02*
G01X0017717Y-010273D01*
G01X0017304Y-010745D02*
G01X0017304Y-010498D01*
G01X0017304Y-010498D02*
G01X0017325Y-010453D01*
G01X0017325Y-010453D02*
G01X0017366Y-010430D01*
G01X0017366Y-010430D02*
G01X0017448Y-010430D01*
G01X0017448Y-010430D02*
G01X0017490Y-010453D01*
G01X0017304Y-010723D02*
G01X0017345Y-010745D01*
G01X0017345Y-010745D02*
G01X0017448Y-010745D01*
G01X0017448Y-010745D02*
G01X0017490Y-010723D01*
G01X0017490Y-010723D02*
G01X0017510Y-010678D01*
G01X0017510Y-010678D02*
G01X0017510Y-010633D01*
G01X0017510Y-010633D02*
G01X0017490Y-010588D01*
G01X0017490Y-010588D02*
G01X0017448Y-010565D01*
G01X0017448Y-010565D02*
G01X0017345Y-010565D01*
G01X0017345Y-010565D02*
G01X0017304Y-010543D01*
G01X0017098Y-010745D02*
G01X0017098Y-010430D01*
G01X0017098Y-010475D02*
G01X0017077Y-010453D01*
G01X0017077Y-010453D02*
G01X0017036Y-010430D01*
G01X0017036Y-010430D02*
G01X0016974Y-010430D01*
G01X0016974Y-010430D02*
G01X0016933Y-010453D01*
G01X0016933Y-010453D02*
G01X0016912Y-010498D01*
G01X0016912Y-010498D02*
G01X0016912Y-010745D01*
G01X0016912Y-010498D02*
G01X0016892Y-010453D01*
G01X0016892Y-010453D02*
G01X0016850Y-010430D01*
G01X0016850Y-010430D02*
G01X0016789Y-010430D01*
G01X0016789Y-010430D02*
G01X0016747Y-010453D01*
G01X0016747Y-010453D02*
G01X0016727Y-010498D01*
G01X0016727Y-010498D02*
G01X0016727Y-010745D01*
G01X0016335Y-010745D02*
G01X0016335Y-010498D01*
G01X0016335Y-010498D02*
G01X0016355Y-010453D01*
G01X0016355Y-010453D02*
G01X0016397Y-010430D01*
G01X0016397Y-010430D02*
G01X0016479Y-010430D01*
G01X0016479Y-010430D02*
G01X0016520Y-010453D01*
G01X0016335Y-010723D02*
G01X0016376Y-010745D01*
G01X0016376Y-010745D02*
G01X0016479Y-010745D01*
G01X0016479Y-010745D02*
G01X0016520Y-010723D01*
G01X0016520Y-010723D02*
G01X0016541Y-010678D01*
G01X0016541Y-010678D02*
G01X0016541Y-010633D01*
G01X0016541Y-010633D02*
G01X0016520Y-010588D01*
G01X0016520Y-010588D02*
G01X0016479Y-010565D01*
G01X0016479Y-010565D02*
G01X0016376Y-010565D01*
G01X0016376Y-010565D02*
G01X0016335Y-010543D01*
G01X0016129Y-010700D02*
G01X0016108Y-010723D01*
G01X0016108Y-010723D02*
G01X0016129Y-010745D01*
G01X0016129Y-010745D02*
G01X0016149Y-010723D01*
G01X0016149Y-010723D02*
G01X0016129Y-010700D01*
G01X0016129Y-010700D02*
G01X0016129Y-010745D01*
G01X0015737Y-010723D02*
G01X0015778Y-010745D01*
G01X0015778Y-010745D02*
G01X0015861Y-010745D01*
G01X0015861Y-010745D02*
G01X0015902Y-010723D01*
G01X0015902Y-010723D02*
G01X0015922Y-010700D01*
G01X0015922Y-010700D02*
G01X0015943Y-010655D01*
G01X0015943Y-010655D02*
G01X0015943Y-010520D01*
G01X0015943Y-010520D02*
G01X0015922Y-010475D01*
G01X0015922Y-010475D02*
G01X0015902Y-010453D01*
G01X0015902Y-010453D02*
G01X0015861Y-010430D01*
G01X0015861Y-010430D02*
G01X0015778Y-010430D01*
G01X0015778Y-010430D02*
G01X0015737Y-010453D01*
G01X0015489Y-010745D02*
G01X0015531Y-010723D01*
G01X0015531Y-010723D02*
G01X0015551Y-010700D01*
G01X0015551Y-010700D02*
G01X0015572Y-010655D01*
G01X0015572Y-010655D02*
G01X0015572Y-010520D01*
G01X0015572Y-010520D02*
G01X0015551Y-010475D01*
G01X0015551Y-010475D02*
G01X0015531Y-010453D01*
G01X0015531Y-010453D02*
G01X0015489Y-010430D01*
G01X0015489Y-010430D02*
G01X0015427Y-010430D01*
G01X0015427Y-010430D02*
G01X0015386Y-010453D01*
G01X0015386Y-010453D02*
G01X0015366Y-010475D01*
G01X0015366Y-010475D02*
G01X0015345Y-010520D01*
G01X0015345Y-010520D02*
G01X0015345Y-010655D01*
G01X0015345Y-010655D02*
G01X0015366Y-010700D01*
G01X0015366Y-010700D02*
G01X0015386Y-010723D01*
G01X0015386Y-010723D02*
G01X0015427Y-010745D01*
G01X0015427Y-010745D02*
G01X0015489Y-010745D01*
G01X0015159Y-010745D02*
G01X0015159Y-010430D01*
G01X0015159Y-010475D02*
G01X0015139Y-010453D01*
G01X0015139Y-010453D02*
G01X0015097Y-010430D01*
G01X0015097Y-010430D02*
G01X0015036Y-010430D01*
G01X0015036Y-010430D02*
G01X0014994Y-010453D01*
G01X0014994Y-010453D02*
G01X0014974Y-010498D01*
G01X0014974Y-010498D02*
G01X0014974Y-010745D01*
G01X0014974Y-010498D02*
G01X0014953Y-010453D01*
G01X0014953Y-010453D02*
G01X0014912Y-010430D01*
G01X0014912Y-010430D02*
G01X0014850Y-010430D01*
G01X0014850Y-010430D02*
G01X0014809Y-010453D01*
G01X0014809Y-010453D02*
G01X0014788Y-010498D01*
G01X0014788Y-010498D02*
G01X0014788Y-010745D01*
G01X0014273Y-010250D02*
G01X0014644Y-010858D01*
G01X0014128Y-010430D02*
G01X0014128Y-010903D01*
G01X0014128Y-010453D02*
G01X0014087Y-010430D01*
G01X0014087Y-010430D02*
G01X0014004Y-010430D01*
G01X0014004Y-010430D02*
G01X0013963Y-010453D01*
G01X0013963Y-010453D02*
G01X0013943Y-010475D01*
G01X0013943Y-010475D02*
G01X0013922Y-010520D01*
G01X0013922Y-010520D02*
G01X0013922Y-010655D01*
G01X0013922Y-010655D02*
G01X0013943Y-010700D01*
G01X0013943Y-010700D02*
G01X0013963Y-010723D01*
G01X0013963Y-010723D02*
G01X0014004Y-010745D01*
G01X0014004Y-010745D02*
G01X0014087Y-010745D01*
G01X0014087Y-010745D02*
G01X0014128Y-010723D01*
G01X0013427Y-010250D02*
G01X0013798Y-010858D01*
G01X0013283Y-010430D02*
G01X0013283Y-010745D01*
G01X0013283Y-010475D02*
G01X0013262Y-010453D01*
G01X0013262Y-010453D02*
G01X0013221Y-010430D01*
G01X0013221Y-010430D02*
G01X0013159Y-010430D01*
G01X0013159Y-010430D02*
G01X0013118Y-010453D01*
G01X0013118Y-010453D02*
G01X0013097Y-010498D01*
G01X0013097Y-010498D02*
G01X0013097Y-010745D01*
G01X0012705Y-010745D02*
G01X0012705Y-010498D01*
G01X0012705Y-010498D02*
G01X0012726Y-010453D01*
G01X0012726Y-010453D02*
G01X0012767Y-010430D01*
G01X0012767Y-010430D02*
G01X0012850Y-010430D01*
G01X0012850Y-010430D02*
G01X0012891Y-010453D01*
G01X0012705Y-010723D02*
G01X0012747Y-010745D01*
G01X0012747Y-010745D02*
G01X0012850Y-010745D01*
G01X0012850Y-010745D02*
G01X0012891Y-010723D01*
G01X0012891Y-010723D02*
G01X0012912Y-010678D01*
G01X0012912Y-010678D02*
G01X0012912Y-010633D01*
G01X0012912Y-010633D02*
G01X0012891Y-010588D01*
G01X0012891Y-010588D02*
G01X0012850Y-010565D01*
G01X0012850Y-010565D02*
G01X0012747Y-010565D01*
G01X0012747Y-010565D02*
G01X0012705Y-010543D01*
G01X0012499Y-010430D02*
G01X0012499Y-010745D01*
G01X0012499Y-010475D02*
G01X0012478Y-010453D01*
G01X0012478Y-010453D02*
G01X0012437Y-010430D01*
G01X0012437Y-010430D02*
G01X0012375Y-010430D01*
G01X0012375Y-010430D02*
G01X0012334Y-010453D01*
G01X0012334Y-010453D02*
G01X0012313Y-010498D01*
G01X0012313Y-010498D02*
G01X0012313Y-010745D01*
G01X0011922Y-010745D02*
G01X0011922Y-010273D01*
G01X0011922Y-010723D02*
G01X0011963Y-010745D01*
G01X0011963Y-010745D02*
G01X0012045Y-010745D01*
G01X0012045Y-010745D02*
G01X0012087Y-010723D01*
G01X0012087Y-010723D02*
G01X0012107Y-010700D01*
G01X0012107Y-010700D02*
G01X0012128Y-010655D01*
G01X0012128Y-010655D02*
G01X0012128Y-010520D01*
G01X0012128Y-010520D02*
G01X0012107Y-010475D01*
G01X0012107Y-010475D02*
G01X0012087Y-010453D01*
G01X0012087Y-010453D02*
G01X0012045Y-010430D01*
G01X0012045Y-010430D02*
G01X0011963Y-010430D01*
G01X0011963Y-010430D02*
G01X0011922Y-010453D01*
G01X0011530Y-010723D02*
G01X0011571Y-010745D01*
G01X0011571Y-010745D02*
G01X0011654Y-010745D01*
G01X0011654Y-010745D02*
G01X0011695Y-010723D01*
G01X0011695Y-010723D02*
G01X0011715Y-010700D01*
G01X0011715Y-010700D02*
G01X0011736Y-010655D01*
G01X0011736Y-010655D02*
G01X0011736Y-010520D01*
G01X0011736Y-010520D02*
G01X0011715Y-010475D01*
G01X0011715Y-010475D02*
G01X0011695Y-010453D01*
G01X0011695Y-010453D02*
G01X0011654Y-010430D01*
G01X0011654Y-010430D02*
G01X0011571Y-010430D01*
G01X0011571Y-010430D02*
G01X0011530Y-010453D01*
G01X0011159Y-010745D02*
G01X0011159Y-010498D01*
G01X0011159Y-010498D02*
G01X0011179Y-010453D01*
G01X0011179Y-010453D02*
G01X0011220Y-010430D01*
G01X0011220Y-010430D02*
G01X0011303Y-010430D01*
G01X0011303Y-010430D02*
G01X0011344Y-010453D01*
G01X0011159Y-010723D02*
G01X0011200Y-010745D01*
G01X0011200Y-010745D02*
G01X0011303Y-010745D01*
G01X0011303Y-010745D02*
G01X0011344Y-010723D01*
G01X0011344Y-010723D02*
G01X0011365Y-010678D01*
G01X0011365Y-010678D02*
G01X0011365Y-010633D01*
G01X0011365Y-010633D02*
G01X0011344Y-010588D01*
G01X0011344Y-010588D02*
G01X0011303Y-010565D01*
G01X0011303Y-010565D02*
G01X0011200Y-010565D01*
G01X0011200Y-010565D02*
G01X0011159Y-010543D01*
G01X0011014Y-010430D02*
G01X0010849Y-010430D01*
G01X0010952Y-010273D02*
G01X0010952Y-010678D01*
G01X0010952Y-010678D02*
G01X0010932Y-010723D01*
G01X0010932Y-010723D02*
G01X0010891Y-010745D01*
G01X0010891Y-010745D02*
G01X0010849Y-010745D01*
G01X0024391Y-012552D02*
G01X0024672Y-012552D01*
G01X0024672Y-012552D02*
G01X0024728Y-012533D01*
G01X0024728Y-012533D02*
G01X0024766Y-012495D01*
G01X0024766Y-012495D02*
G01X0024784Y-012439D01*
G01X0024784Y-012439D02*
G01X0024784Y-012402D01*
G01X0024784Y-012927D02*
G01X0024784Y-012739D01*
G01X0024784Y-012739D02*
G01X0024391Y-012739D01*
G01X0024747Y-013283D02*
G01X0024766Y-013264D01*
G01X0024766Y-013264D02*
G01X0024784Y-013208D01*
G01X0024784Y-013208D02*
G01X0024784Y-013170D01*
G01X0024784Y-013170D02*
G01X0024766Y-013114D01*
G01X0024766Y-013114D02*
G01X0024728Y-013076D01*
G01X0024728Y-013076D02*
G01X0024691Y-013058D01*
G01X0024691Y-013058D02*
G01X0024616Y-013039D01*
G01X0024616Y-013039D02*
G01X0024559Y-013039D01*
G01X0024559Y-013039D02*
G01X0024484Y-013058D01*
G01X0024484Y-013058D02*
G01X0024447Y-013076D01*
G01X0024447Y-013076D02*
G01X0024409Y-013114D01*
G01X0024409Y-013114D02*
G01X0024391Y-013170D01*
G01X0024391Y-013170D02*
G01X0024391Y-013208D01*
G01X0024391Y-013208D02*
G01X0024409Y-013264D01*
G01X0024409Y-013264D02*
G01X0024428Y-013283D01*
G01X0024391Y-013564D02*
G01X0024672Y-013564D01*
G01X0024672Y-013564D02*
G01X0024728Y-013545D01*
G01X0024728Y-013545D02*
G01X0024766Y-013508D01*
G01X0024766Y-013508D02*
G01X0024784Y-013451D01*
G01X0024784Y-013451D02*
G01X0024784Y-013414D01*
G01X0024784Y-013939D02*
G01X0024784Y-013751D01*
G01X0024784Y-013751D02*
G01X0024391Y-013751D01*
G01X0024747Y-014295D02*
G01X0024766Y-014276D01*
G01X0024766Y-014276D02*
G01X0024784Y-014220D01*
G01X0024784Y-014220D02*
G01X0024784Y-014183D01*
G01X0024784Y-014183D02*
G01X0024766Y-014126D01*
G01X0024766Y-014126D02*
G01X0024728Y-014089D01*
G01X0024728Y-014089D02*
G01X0024691Y-014070D01*
G01X0024691Y-014070D02*
G01X0024616Y-014051D01*
G01X0024616Y-014051D02*
G01X0024559Y-014051D01*
G01X0024559Y-014051D02*
G01X0024484Y-014070D01*
G01X0024484Y-014070D02*
G01X0024447Y-014089D01*
G01X0024447Y-014089D02*
G01X0024409Y-014126D01*
G01X0024409Y-014126D02*
G01X0024391Y-014183D01*
G01X0024391Y-014183D02*
G01X0024391Y-014220D01*
G01X0024391Y-014220D02*
G01X0024409Y-014276D01*
G01X0024409Y-014276D02*
G01X0024428Y-014295D01*
G01X0024391Y-014576D02*
G01X0024672Y-014576D01*
G01X0024672Y-014576D02*
G01X0024728Y-014558D01*
G01X0024728Y-014558D02*
G01X0024766Y-014520D01*
G01X0024766Y-014520D02*
G01X0024784Y-014464D01*
G01X0024784Y-014464D02*
G01X0024784Y-014426D01*
G01X0024784Y-014951D02*
G01X0024784Y-014764D01*
G01X0024784Y-014764D02*
G01X0024391Y-014764D01*
G01X0024747Y-015307D02*
G01X0024766Y-015289D01*
G01X0024766Y-015289D02*
G01X0024784Y-015232D01*
G01X0024784Y-015232D02*
G01X0024784Y-015195D01*
G01X0024784Y-015195D02*
G01X0024766Y-015139D01*
G01X0024766Y-015139D02*
G01X0024728Y-015101D01*
G01X0024728Y-015101D02*
G01X0024691Y-015082D01*
G01X0024691Y-015082D02*
G01X0024616Y-015064D01*
G01X0024616Y-015064D02*
G01X0024559Y-015064D01*
G01X0024559Y-015064D02*
G01X0024484Y-015082D01*
G01X0024484Y-015082D02*
G01X0024447Y-015101D01*
G01X0024447Y-015101D02*
G01X0024409Y-015139D01*
G01X0024409Y-015139D02*
G01X0024391Y-015195D01*
G01X0024391Y-015195D02*
G01X0024391Y-015232D01*
G01X0024391Y-015232D02*
G01X0024409Y-015289D01*
G01X0024409Y-015289D02*
G01X0024428Y-015307D01*
G01X0024391Y-015589D02*
G01X0024672Y-015589D01*
G01X0024672Y-015589D02*
G01X0024728Y-015570D01*
G01X0024728Y-015570D02*
G01X0024766Y-015532D01*
G01X0024766Y-015532D02*
G01X0024784Y-015476D01*
G01X0024784Y-015476D02*
G01X0024784Y-015439D01*
G01X0024784Y-015964D02*
G01X0024784Y-015776D01*
G01X0024784Y-015776D02*
G01X0024391Y-015776D01*
G01X0024747Y-016320D02*
G01X0024766Y-016301D01*
G01X0024766Y-016301D02*
G01X0024784Y-016245D01*
G01X0024784Y-016245D02*
G01X0024784Y-016207D01*
G01X0024784Y-016207D02*
G01X0024766Y-016151D01*
G01X0024766Y-016151D02*
G01X0024728Y-016114D01*
G01X0024728Y-016114D02*
G01X0024691Y-016095D01*
G01X0024691Y-016095D02*
G01X0024616Y-016076D01*
G01X0024616Y-016076D02*
G01X0024559Y-016076D01*
G01X0024559Y-016076D02*
G01X0024484Y-016095D01*
G01X0024484Y-016095D02*
G01X0024447Y-016114D01*
G01X0024447Y-016114D02*
G01X0024409Y-016151D01*
G01X0024409Y-016151D02*
G01X0024391Y-016207D01*
G01X0024391Y-016207D02*
G01X0024391Y-016245D01*
G01X0024391Y-016245D02*
G01X0024409Y-016301D01*
G01X0024409Y-016301D02*
G01X0024428Y-016320D01*
G54D13*
G01X0033237Y-014914D02*
G01X0033215Y-014992D01*
G01X0030994Y-011770D02*
G01X0031125Y-011936D01*
G01X0033083Y-015217D02*
G01X0033011Y-015284D01*
G01X0032922Y-015345D02*
G01X0032815Y-015398D01*
G01X0032815Y-015398D02*
G01X0032687Y-015441D01*
G01X0032687Y-015441D02*
G01X0032537Y-015473D01*
G01X0031249Y-016559D02*
G01X0031081Y-016798D01*
G01X0031081Y-016798D02*
G01X0030899Y-017022D01*
G01X0031125Y-011936D02*
G01X0031252Y-012117D01*
G01X0032769Y-013780D02*
G01X0032837Y-013797D01*
G01X0033011Y-015284D02*
G01X0032922Y-015345D01*
G01X0033226Y-014335D02*
G01X0033250Y-014492D01*
G01X0030899Y-017022D02*
G01X0030702Y-017230D01*
G01X0031741Y-015449D02*
G01X0031697Y-015601D01*
G01X0032614Y-013772D02*
G01X0032695Y-013771D01*
G01X0031400Y-016304D02*
G01X0031249Y-016559D01*
G01X0031593Y-015893D02*
G01X0031533Y-016034D01*
G01X0031648Y-015749D02*
G01X0031593Y-015893D01*
G01X0030702Y-017230D02*
G01X0030494Y-017422D01*
G01X0030494Y-017422D02*
G01X0030275Y-017597D01*
G01X0031873Y-013866D02*
G01X0032527Y-013782D01*
G01X0032956Y-013857D02*
G01X0033007Y-013898D01*
G01X0031697Y-015601D02*
G01X0031648Y-015749D01*
G01X0031828Y-013562D02*
G01X0031873Y-013866D01*
G01X0029568Y-018023D02*
G01X0029321Y-018131D01*
G01X0029321Y-018131D02*
G01X0029069Y-018221D01*
G01X0033007Y-013898D02*
G01X0033053Y-013945D01*
G01X0032537Y-015473D02*
G01X0031741Y-015449D01*
G01X0033129Y-014057D02*
G01X0033160Y-014121D01*
G01X0033093Y-013998D02*
G01X0033129Y-014057D01*
G01X0033140Y-015145D02*
G01X0033083Y-015217D01*
G01X0029069Y-018221D02*
G01X0028816Y-018294D01*
G01X0028816Y-018294D02*
G01X0028561Y-018348D01*
G01X0028561Y-018348D02*
G01X0028302Y-018383D01*
G01X0031764Y-013277D02*
G01X0031828Y-013562D01*
G01X0032527Y-013782D02*
G01X0032614Y-013772D01*
G01X0033053Y-013945D02*
G01X0033093Y-013998D01*
G01X0033250Y-014492D02*
G01X0033258Y-014695D01*
G01X0033160Y-014121D02*
G01X0033186Y-014189D01*
G01X0030047Y-017756D02*
G01X0029811Y-017898D01*
G01X0033258Y-014695D02*
G01X0033250Y-014838D01*
G01X0033184Y-015069D02*
G01X0033140Y-015145D01*
G01X0030275Y-017597D02*
G01X0030047Y-017756D01*
G01X0029811Y-017898D02*
G01X0029568Y-018023D01*
G01X0030863Y-011621D02*
G01X0030994Y-011770D01*
G01X0032695Y-013771D02*
G01X0032769Y-013780D01*
G01X0030733Y-011487D02*
G01X0030863Y-011621D01*
G01X0031533Y-016034D02*
G01X0031400Y-016304D01*
G01X0031373Y-012315D02*
G01X0031487Y-012530D01*
G01X0033215Y-014992D02*
G01X0033184Y-015069D01*
G01X0031487Y-012530D02*
G01X0031592Y-012761D01*
G01X0033186Y-014189D02*
G01X0033226Y-014335D01*
G01X0031685Y-013010D02*
G01X0031764Y-013277D01*
G01X0031252Y-012117D02*
G01X0031373Y-012315D01*
G01X0031592Y-012761D02*
G01X0031685Y-013010D01*
G01X0032837Y-013797D02*
G01X0032899Y-013823D01*
G01X0032899Y-013823D02*
G01X0032956Y-013857D01*
G01X0033250Y-014838D02*
G01X0033237Y-014914D01*
G01X0020042Y-019786D02*
G01X0019813Y-019801D01*
G01X0023881Y-017714D02*
G01X0023753Y-017873D01*
G01X0019094Y-019803D02*
G01X0010079Y-019842D01*
G01X0010079Y-019842D02*
G01X0010079Y-019842D01*
G01X0027485Y-018361D02*
G01X0027207Y-018313D01*
G01X0028035Y-018396D02*
G01X0027762Y-018389D01*
G01X0023753Y-017873D02*
G01X0023620Y-018026D01*
G01X0021881Y-019318D02*
G01X0021696Y-019398D01*
G01X0024354Y-017027D02*
G01X0024242Y-017207D01*
G01X0027207Y-018313D02*
G01X0026928Y-018247D01*
G01X0019813Y-019801D02*
G01X0019579Y-019810D01*
G01X0025853Y-017801D02*
G01X0025604Y-017647D01*
G01X0022238Y-019139D02*
G01X0022062Y-019232D01*
G01X0025604Y-017647D02*
G01X0025366Y-017478D01*
G01X0022576Y-018935D02*
G01X0022409Y-019040D01*
G01X0021312Y-019537D02*
G01X0021112Y-019596D01*
G01X0026652Y-018162D02*
G01X0026379Y-018059D01*
G01X0022738Y-018823D02*
G01X0022576Y-018935D01*
G01X0021112Y-019596D02*
G01X0020908Y-019649D01*
G01X0024651Y-016769D02*
G01X0024567Y-016654D01*
G01X0025141Y-017293D02*
G01X0024932Y-017094D01*
G01X0020699Y-019694D02*
G01X0020485Y-019732D01*
G01X0020485Y-019732D02*
G01X0020266Y-019762D01*
G01X0024567Y-016654D02*
G01X0024354Y-017027D01*
G01X0024242Y-017207D02*
G01X0024125Y-017381D01*
G01X0022896Y-018705D02*
G01X0022738Y-018823D01*
G01X0022409Y-019040D02*
G01X0022238Y-019139D01*
G01X0020908Y-019649D02*
G01X0020699Y-019694D01*
G01X0020266Y-019762D02*
G01X0020042Y-019786D01*
G01X0019579Y-019810D02*
G01X0019339Y-019810D01*
G01X0019339Y-019810D02*
G01X0019094Y-019803D01*
G01X0027762Y-018389D02*
G01X0027485Y-018361D01*
G01X0024740Y-016880D02*
G01X0024651Y-016769D01*
G01X0024005Y-017550D02*
G01X0023881Y-017714D01*
G01X0022062Y-019232D02*
G01X0021881Y-019318D01*
G01X0024125Y-017381D02*
G01X0024005Y-017550D01*
G01X0023484Y-018173D02*
G01X0023343Y-018315D01*
G01X0023343Y-018315D02*
G01X0023199Y-018451D01*
G01X0026928Y-018247D02*
G01X0026652Y-018162D01*
G01X0026379Y-018059D02*
G01X0026112Y-017938D01*
G01X0025366Y-017478D02*
G01X0025141Y-017293D01*
G01X0024932Y-017094D02*
G01X0024740Y-016880D01*
G01X0023620Y-018026D02*
G01X0023484Y-018173D01*
G01X0023199Y-018451D02*
G01X0023049Y-018581D01*
G01X0028302Y-018383D02*
G01X0028035Y-018396D01*
G01X0026112Y-017938D02*
G01X0025853Y-017801D01*
G01X0023049Y-018581D02*
G01X0022896Y-018705D01*
G01X0021696Y-019398D02*
G01X0021506Y-019471D01*
G01X0021506Y-019471D02*
G01X0021312Y-019537D01*
G01X0024720Y-011857D02*
G01X0024888Y-011642D01*
G01X0022743Y-009847D02*
G01X0022907Y-009968D01*
G01X0022398Y-009620D02*
G01X0022574Y-009731D01*
G01X0022217Y-009515D02*
G01X0022398Y-009620D01*
G01X0024003Y-011095D02*
G01X0024113Y-011252D01*
G01X0024216Y-011411D02*
G01X0024313Y-011572D01*
G01X0021010Y-009017D02*
G01X0021225Y-009082D01*
G01X0020332Y-008865D02*
G01X0020563Y-008907D01*
G01X0010079Y-019842D02*
G01X0010079Y-008819D01*
G01X0022907Y-009968D02*
G01X0023065Y-010095D01*
G01X0024113Y-011252D02*
G01X0024216Y-011411D01*
G01X0022574Y-009731D02*
G01X0022743Y-009847D01*
G01X0024313Y-011572D02*
G01X0024404Y-011736D01*
G01X0024566Y-012068D02*
G01X0024720Y-011857D01*
G01X0023217Y-010226D02*
G01X0023364Y-010361D01*
G01X0021837Y-009322D02*
G01X0022030Y-009415D01*
G01X0021434Y-009155D02*
G01X0021638Y-009235D01*
G01X0024404Y-011736D02*
G01X0024488Y-011901D01*
G01X0023364Y-010361D02*
G01X0023504Y-010501D01*
G01X0024888Y-011642D02*
G01X0024985Y-011532D01*
G01X0021225Y-009082D02*
G01X0021434Y-009155D01*
G01X0010079Y-008819D02*
G01X0019094Y-008780D01*
G01X0023504Y-010501D02*
G01X0023638Y-010644D01*
G01X0025354Y-011181D02*
G01X0025787Y-008622D01*
G01X0025787Y-008622D02*
G01X0026945Y-010376D01*
G01X0020789Y-008958D02*
G01X0021010Y-009017D01*
G01X0026945Y-010376D02*
G01X0027079Y-010341D01*
G01X0027079Y-010341D02*
G01X0027215Y-010315D01*
G01X0025092Y-011419D02*
G01X0025215Y-011302D01*
G01X0027215Y-010315D02*
G01X0027358Y-010295D01*
G01X0027675Y-010274D02*
G01X0027855Y-010274D01*
G01X0021638Y-009235D02*
G01X0021837Y-009322D01*
G01X0027855Y-010274D02*
G01X0028277Y-010290D01*
G01X0028277Y-010290D02*
G01X0029764Y-008543D01*
G01X0029764Y-008543D02*
G01X0030175Y-011034D01*
G01X0023065Y-010095D02*
G01X0023217Y-010226D01*
G01X0024488Y-011901D02*
G01X0024566Y-012068D01*
G01X0023888Y-010942D02*
G01X0024003Y-011095D01*
G01X0019352Y-008779D02*
G01X0019605Y-008787D01*
G01X0030175Y-011034D02*
G01X0030372Y-011173D01*
G01X0019853Y-008804D02*
G01X0020095Y-008830D01*
G01X0019094Y-008780D02*
G01X0019352Y-008779D01*
G01X0020095Y-008830D02*
G01X0020332Y-008865D01*
G01X0020563Y-008907D02*
G01X0020789Y-008958D01*
G01X0022030Y-009415D02*
G01X0022217Y-009515D01*
G01X0023766Y-010791D02*
G01X0023888Y-010942D01*
G01X0024985Y-011532D02*
G01X0025092Y-011419D01*
G01X0027358Y-010295D02*
G01X0027510Y-010281D01*
G01X0030372Y-011173D02*
G01X0030485Y-011263D01*
G01X0027510Y-010281D02*
G01X0027675Y-010274D01*
G01X0030485Y-011263D02*
G01X0030607Y-011367D01*
G01X0030607Y-011367D02*
G01X0030733Y-011487D01*
G01X0025215Y-011302D02*
G01X0025354Y-011181D01*
G01X0019605Y-008787D02*
G01X0019853Y-008804D01*
G01X0023638Y-010644D02*
G01X0023766Y-010791D01*
M02*
