G04 This is an RS-274x file exported by *
G04 gerbv version 2.6A *
G04 More information is available about gerbv at *
G04 http://gerbv.geda-project.org/ *
G04 --End of header info--*
%MOIN*%
%FSLAX34Y34*%
%IPPOS*%
G04 --Define apertures--*
%ADD10C,0.0039*%
%ADD11R,0.0709X0.0709*%
%ADD12C,0.0709*%
%ADD13R,0.0669X0.0669*%
%ADD14O,0.0669X0.0669*%
%ADD15C,0.0315*%
%ADD16C,0.0120*%
G04 --Start main section--*
G54D10*
G01X0033237Y-014914D02*
G01X0033215Y-014992D01*
G01X0030994Y-011770D02*
G01X0031125Y-011936D01*
G01X0033083Y-015217D02*
G01X0033011Y-015284D01*
G01X0032922Y-015345D02*
G01X0032815Y-015398D01*
G01X0032815Y-015398D02*
G01X0032687Y-015441D01*
G01X0032687Y-015441D02*
G01X0032537Y-015473D01*
G01X0031249Y-016559D02*
G01X0031081Y-016798D01*
G01X0031081Y-016798D02*
G01X0030899Y-017022D01*
G01X0031125Y-011936D02*
G01X0031252Y-012117D01*
G01X0032769Y-013780D02*
G01X0032837Y-013797D01*
G01X0033011Y-015284D02*
G01X0032922Y-015345D01*
G01X0033226Y-014335D02*
G01X0033250Y-014492D01*
G01X0030899Y-017022D02*
G01X0030702Y-017230D01*
G01X0031741Y-015449D02*
G01X0031697Y-015601D01*
G01X0032614Y-013772D02*
G01X0032695Y-013771D01*
G01X0031400Y-016304D02*
G01X0031249Y-016559D01*
G01X0031593Y-015893D02*
G01X0031533Y-016034D01*
G01X0031648Y-015749D02*
G01X0031593Y-015893D01*
G01X0030702Y-017230D02*
G01X0030494Y-017422D01*
G01X0030494Y-017422D02*
G01X0030275Y-017597D01*
G01X0031873Y-013866D02*
G01X0032527Y-013782D01*
G01X0032956Y-013857D02*
G01X0033007Y-013898D01*
G01X0031697Y-015601D02*
G01X0031648Y-015749D01*
G01X0031828Y-013562D02*
G01X0031873Y-013866D01*
G01X0029568Y-018023D02*
G01X0029321Y-018131D01*
G01X0029321Y-018131D02*
G01X0029069Y-018221D01*
G01X0033007Y-013898D02*
G01X0033053Y-013945D01*
G01X0032537Y-015473D02*
G01X0031741Y-015449D01*
G01X0033129Y-014057D02*
G01X0033160Y-014121D01*
G01X0033093Y-013998D02*
G01X0033129Y-014057D01*
G01X0033140Y-015145D02*
G01X0033083Y-015217D01*
G01X0029069Y-018221D02*
G01X0028816Y-018294D01*
G01X0028816Y-018294D02*
G01X0028561Y-018348D01*
G01X0028561Y-018348D02*
G01X0028302Y-018383D01*
G01X0031764Y-013277D02*
G01X0031828Y-013562D01*
G01X0032527Y-013782D02*
G01X0032614Y-013772D01*
G01X0033053Y-013945D02*
G01X0033093Y-013998D01*
G01X0033250Y-014492D02*
G01X0033258Y-014695D01*
G01X0033160Y-014121D02*
G01X0033186Y-014189D01*
G01X0030047Y-017756D02*
G01X0029811Y-017898D01*
G01X0033258Y-014695D02*
G01X0033250Y-014838D01*
G01X0033184Y-015069D02*
G01X0033140Y-015145D01*
G01X0030275Y-017597D02*
G01X0030047Y-017756D01*
G01X0029811Y-017898D02*
G01X0029568Y-018023D01*
G01X0030863Y-011621D02*
G01X0030994Y-011770D01*
G01X0032695Y-013771D02*
G01X0032769Y-013780D01*
G01X0030733Y-011487D02*
G01X0030863Y-011621D01*
G01X0031533Y-016034D02*
G01X0031400Y-016304D01*
G01X0031373Y-012315D02*
G01X0031487Y-012530D01*
G01X0033215Y-014992D02*
G01X0033184Y-015069D01*
G01X0031487Y-012530D02*
G01X0031592Y-012761D01*
G01X0033186Y-014189D02*
G01X0033226Y-014335D01*
G01X0031685Y-013010D02*
G01X0031764Y-013277D01*
G01X0031252Y-012117D02*
G01X0031373Y-012315D01*
G01X0031592Y-012761D02*
G01X0031685Y-013010D01*
G01X0032837Y-013797D02*
G01X0032899Y-013823D01*
G01X0032899Y-013823D02*
G01X0032956Y-013857D01*
G01X0033250Y-014838D02*
G01X0033237Y-014914D01*
G01X0020042Y-019786D02*
G01X0019813Y-019801D01*
G01X0023881Y-017714D02*
G01X0023753Y-017873D01*
G01X0019094Y-019803D02*
G01X0010079Y-019842D01*
G01X0010079Y-019842D02*
G01X0010079Y-019842D01*
G01X0027485Y-018361D02*
G01X0027207Y-018313D01*
G01X0028035Y-018396D02*
G01X0027762Y-018389D01*
G01X0023753Y-017873D02*
G01X0023620Y-018026D01*
G01X0021881Y-019318D02*
G01X0021696Y-019398D01*
G01X0024354Y-017027D02*
G01X0024242Y-017207D01*
G01X0027207Y-018313D02*
G01X0026928Y-018247D01*
G01X0019813Y-019801D02*
G01X0019579Y-019810D01*
G01X0025853Y-017801D02*
G01X0025604Y-017647D01*
G01X0022238Y-019139D02*
G01X0022062Y-019232D01*
G01X0025604Y-017647D02*
G01X0025366Y-017478D01*
G01X0022576Y-018935D02*
G01X0022409Y-019040D01*
G01X0021312Y-019537D02*
G01X0021112Y-019596D01*
G01X0026652Y-018162D02*
G01X0026379Y-018059D01*
G01X0022738Y-018823D02*
G01X0022576Y-018935D01*
G01X0021112Y-019596D02*
G01X0020908Y-019649D01*
G01X0024651Y-016769D02*
G01X0024567Y-016654D01*
G01X0025141Y-017293D02*
G01X0024932Y-017094D01*
G01X0020699Y-019694D02*
G01X0020485Y-019732D01*
G01X0020485Y-019732D02*
G01X0020266Y-019762D01*
G01X0024567Y-016654D02*
G01X0024354Y-017027D01*
G01X0024242Y-017207D02*
G01X0024125Y-017381D01*
G01X0022896Y-018705D02*
G01X0022738Y-018823D01*
G01X0022409Y-019040D02*
G01X0022238Y-019139D01*
G01X0020908Y-019649D02*
G01X0020699Y-019694D01*
G01X0020266Y-019762D02*
G01X0020042Y-019786D01*
G01X0019579Y-019810D02*
G01X0019339Y-019810D01*
G01X0019339Y-019810D02*
G01X0019094Y-019803D01*
G01X0027762Y-018389D02*
G01X0027485Y-018361D01*
G01X0024740Y-016880D02*
G01X0024651Y-016769D01*
G01X0024005Y-017550D02*
G01X0023881Y-017714D01*
G01X0022062Y-019232D02*
G01X0021881Y-019318D01*
G01X0024125Y-017381D02*
G01X0024005Y-017550D01*
G01X0023484Y-018173D02*
G01X0023343Y-018315D01*
G01X0023343Y-018315D02*
G01X0023199Y-018451D01*
G01X0026928Y-018247D02*
G01X0026652Y-018162D01*
G01X0026379Y-018059D02*
G01X0026112Y-017938D01*
G01X0025366Y-017478D02*
G01X0025141Y-017293D01*
G01X0024932Y-017094D02*
G01X0024740Y-016880D01*
G01X0023620Y-018026D02*
G01X0023484Y-018173D01*
G01X0023199Y-018451D02*
G01X0023049Y-018581D01*
G01X0028302Y-018383D02*
G01X0028035Y-018396D01*
G01X0026112Y-017938D02*
G01X0025853Y-017801D01*
G01X0023049Y-018581D02*
G01X0022896Y-018705D01*
G01X0021696Y-019398D02*
G01X0021506Y-019471D01*
G01X0021506Y-019471D02*
G01X0021312Y-019537D01*
G01X0024720Y-011857D02*
G01X0024888Y-011642D01*
G01X0022743Y-009847D02*
G01X0022907Y-009968D01*
G01X0022398Y-009620D02*
G01X0022574Y-009731D01*
G01X0022217Y-009515D02*
G01X0022398Y-009620D01*
G01X0024003Y-011095D02*
G01X0024113Y-011252D01*
G01X0024216Y-011411D02*
G01X0024313Y-011572D01*
G01X0021010Y-009017D02*
G01X0021225Y-009082D01*
G01X0020332Y-008865D02*
G01X0020563Y-008907D01*
G01X0010079Y-019842D02*
G01X0010079Y-008819D01*
G01X0022907Y-009968D02*
G01X0023065Y-010095D01*
G01X0024113Y-011252D02*
G01X0024216Y-011411D01*
G01X0022574Y-009731D02*
G01X0022743Y-009847D01*
G01X0024313Y-011572D02*
G01X0024404Y-011736D01*
G01X0024566Y-012068D02*
G01X0024720Y-011857D01*
G01X0023217Y-010226D02*
G01X0023364Y-010361D01*
G01X0021837Y-009322D02*
G01X0022030Y-009415D01*
G01X0021434Y-009155D02*
G01X0021638Y-009235D01*
G01X0024404Y-011736D02*
G01X0024488Y-011901D01*
G01X0023364Y-010361D02*
G01X0023504Y-010501D01*
G01X0024888Y-011642D02*
G01X0024985Y-011532D01*
G01X0021225Y-009082D02*
G01X0021434Y-009155D01*
G01X0010079Y-008819D02*
G01X0019094Y-008780D01*
G01X0023504Y-010501D02*
G01X0023638Y-010644D01*
G01X0025354Y-011181D02*
G01X0025787Y-008622D01*
G01X0025787Y-008622D02*
G01X0026945Y-010376D01*
G01X0020789Y-008958D02*
G01X0021010Y-009017D01*
G01X0026945Y-010376D02*
G01X0027079Y-010341D01*
G01X0027079Y-010341D02*
G01X0027215Y-010315D01*
G01X0025092Y-011419D02*
G01X0025215Y-011302D01*
G01X0027215Y-010315D02*
G01X0027358Y-010295D01*
G01X0027675Y-010274D02*
G01X0027855Y-010274D01*
G01X0021638Y-009235D02*
G01X0021837Y-009322D01*
G01X0027855Y-010274D02*
G01X0028277Y-010290D01*
G01X0028277Y-010290D02*
G01X0029764Y-008543D01*
G01X0029764Y-008543D02*
G01X0030175Y-011034D01*
G01X0023065Y-010095D02*
G01X0023217Y-010226D01*
G01X0024488Y-011901D02*
G01X0024566Y-012068D01*
G01X0023888Y-010942D02*
G01X0024003Y-011095D01*
G01X0019352Y-008779D02*
G01X0019605Y-008787D01*
G01X0030175Y-011034D02*
G01X0030372Y-011173D01*
G01X0019853Y-008804D02*
G01X0020095Y-008830D01*
G01X0019094Y-008780D02*
G01X0019352Y-008779D01*
G01X0020095Y-008830D02*
G01X0020332Y-008865D01*
G01X0020563Y-008907D02*
G01X0020789Y-008958D01*
G01X0022030Y-009415D02*
G01X0022217Y-009515D01*
G01X0023766Y-010791D02*
G01X0023888Y-010942D01*
G01X0024985Y-011532D02*
G01X0025092Y-011419D01*
G01X0027358Y-010295D02*
G01X0027510Y-010281D01*
G01X0030372Y-011173D02*
G01X0030485Y-011263D01*
G01X0027510Y-010281D02*
G01X0027675Y-010274D01*
G01X0030485Y-011263D02*
G01X0030607Y-011367D01*
G01X0030607Y-011367D02*
G01X0030733Y-011487D01*
G01X0025215Y-011302D02*
G01X0025354Y-011181D01*
G01X0019605Y-008787D02*
G01X0019853Y-008804D01*
G01X0023638Y-010644D02*
G01X0023766Y-010791D01*
G54D11*
G01X0027402Y-014488D03*
G54D12*
G01X0028402Y-014488D03*
G54D13*
G01X0015846Y-013091D03*
G54D14*
G01X0016846Y-013091D03*
G01X0015846Y-014091D03*
G01X0016846Y-014091D03*
G01X0015846Y-015091D03*
G01X0016846Y-015091D03*
G54D15*
G01X0020965Y-013091D03*
G01X0020965Y-015846D03*
G01X0020965Y-011024D03*
G01X0018898Y-013287D03*
G54D16*
G01X0027402Y-014488D02*
G01X0022362Y-014488D01*
G01X0021083Y-015728D02*
G01X0022343Y-014469D01*
G01X0020965Y-015846D02*
G01X0021083Y-015728D01*
G01X0022362Y-014488D02*
G01X0022343Y-014469D01*
G01X0015846Y-012636D02*
G01X0016081Y-012402D01*
G01X0015846Y-013091D02*
G01X0015846Y-012636D01*
G01X0022343Y-014469D02*
G01X0021555Y-013681D01*
G01X0017323Y-012402D02*
G01X0016081Y-012402D01*
G01X0018602Y-013681D02*
G01X0017323Y-012402D01*
G01X0020965Y-013258D02*
G01X0020965Y-013681D01*
G01X0020965Y-013091D02*
G01X0020965Y-013258D01*
G01X0021555Y-013681D02*
G01X0020965Y-013681D01*
G01X0020965Y-013681D02*
G01X0018602Y-013681D01*
G01X0028402Y-013987D02*
G01X0027997Y-013583D01*
G01X0028402Y-014488D02*
G01X0028402Y-013987D01*
G01X0027997Y-013583D02*
G01X0022736Y-013583D01*
G01X0022736Y-013583D02*
G01X0021555Y-012402D01*
G01X0020965Y-011024D02*
G01X0020965Y-012402D01*
G01X0021555Y-012402D02*
G01X0020965Y-012402D01*
G01X0020965Y-012402D02*
G01X0019783Y-012402D01*
G01X0019783Y-012402D02*
G01X0018898Y-013287D01*
G01X0018898Y-013287D02*
G01X0018898Y-013287D01*
M02*
