G04 This is an RS-274x file exported by *
G04 gerbv version 2.6A *
G04 More information is available about gerbv at *
G04 http://gerbv.geda-project.org/ *
G04 --End of header info--*
%MOIN*%
%FSLAX34Y34*%
%IPPOS*%
G04 --Define apertures--*
%ADD10C,0.0039*%
%ADD11R,0.0709X0.0709*%
%ADD12C,0.0709*%
%ADD13C,0.0344*%
%ADD14R,0.0669X0.0669*%
%ADD15O,0.0669X0.0669*%
%ADD16R,0.0315X0.0354*%
%ADD17R,0.0512X0.0610*%
%ADD18C,0.0315*%
%ADD19C,0.0120*%
G04 --Start main section--*
G54D10*
G01X0033237Y-014914D02*
G01X0033215Y-014992D01*
G01X0030994Y-011770D02*
G01X0031125Y-011936D01*
G01X0033083Y-015217D02*
G01X0033011Y-015284D01*
G01X0032922Y-015345D02*
G01X0032815Y-015398D01*
G01X0032815Y-015398D02*
G01X0032687Y-015441D01*
G01X0032687Y-015441D02*
G01X0032537Y-015473D01*
G01X0031249Y-016559D02*
G01X0031081Y-016798D01*
G01X0031081Y-016798D02*
G01X0030899Y-017022D01*
G01X0031125Y-011936D02*
G01X0031252Y-012117D01*
G01X0032769Y-013780D02*
G01X0032837Y-013797D01*
G01X0033011Y-015284D02*
G01X0032922Y-015345D01*
G01X0033226Y-014335D02*
G01X0033250Y-014492D01*
G01X0030899Y-017022D02*
G01X0030702Y-017230D01*
G01X0031741Y-015449D02*
G01X0031697Y-015601D01*
G01X0032614Y-013772D02*
G01X0032695Y-013771D01*
G01X0031400Y-016304D02*
G01X0031249Y-016559D01*
G01X0031593Y-015893D02*
G01X0031533Y-016034D01*
G01X0031648Y-015749D02*
G01X0031593Y-015893D01*
G01X0030702Y-017230D02*
G01X0030494Y-017422D01*
G01X0030494Y-017422D02*
G01X0030275Y-017597D01*
G01X0031873Y-013866D02*
G01X0032527Y-013782D01*
G01X0032956Y-013857D02*
G01X0033007Y-013898D01*
G01X0031697Y-015601D02*
G01X0031648Y-015749D01*
G01X0031828Y-013562D02*
G01X0031873Y-013866D01*
G01X0029568Y-018023D02*
G01X0029321Y-018131D01*
G01X0029321Y-018131D02*
G01X0029069Y-018221D01*
G01X0033007Y-013898D02*
G01X0033053Y-013945D01*
G01X0032537Y-015473D02*
G01X0031741Y-015449D01*
G01X0033129Y-014057D02*
G01X0033160Y-014121D01*
G01X0033093Y-013998D02*
G01X0033129Y-014057D01*
G01X0033140Y-015145D02*
G01X0033083Y-015217D01*
G01X0029069Y-018221D02*
G01X0028816Y-018294D01*
G01X0028816Y-018294D02*
G01X0028561Y-018348D01*
G01X0028561Y-018348D02*
G01X0028302Y-018383D01*
G01X0031764Y-013277D02*
G01X0031828Y-013562D01*
G01X0032527Y-013782D02*
G01X0032614Y-013772D01*
G01X0033053Y-013945D02*
G01X0033093Y-013998D01*
G01X0033250Y-014492D02*
G01X0033258Y-014695D01*
G01X0033160Y-014121D02*
G01X0033186Y-014189D01*
G01X0030047Y-017756D02*
G01X0029811Y-017898D01*
G01X0033258Y-014695D02*
G01X0033250Y-014838D01*
G01X0033184Y-015069D02*
G01X0033140Y-015145D01*
G01X0030275Y-017597D02*
G01X0030047Y-017756D01*
G01X0029811Y-017898D02*
G01X0029568Y-018023D01*
G01X0030863Y-011621D02*
G01X0030994Y-011770D01*
G01X0032695Y-013771D02*
G01X0032769Y-013780D01*
G01X0030733Y-011487D02*
G01X0030863Y-011621D01*
G01X0031533Y-016034D02*
G01X0031400Y-016304D01*
G01X0031373Y-012315D02*
G01X0031487Y-012530D01*
G01X0033215Y-014992D02*
G01X0033184Y-015069D01*
G01X0031487Y-012530D02*
G01X0031592Y-012761D01*
G01X0033186Y-014189D02*
G01X0033226Y-014335D01*
G01X0031685Y-013010D02*
G01X0031764Y-013277D01*
G01X0031252Y-012117D02*
G01X0031373Y-012315D01*
G01X0031592Y-012761D02*
G01X0031685Y-013010D01*
G01X0032837Y-013797D02*
G01X0032899Y-013823D01*
G01X0032899Y-013823D02*
G01X0032956Y-013857D01*
G01X0033250Y-014838D02*
G01X0033237Y-014914D01*
G01X0020042Y-019786D02*
G01X0019813Y-019801D01*
G01X0023881Y-017714D02*
G01X0023753Y-017873D01*
G01X0019094Y-019803D02*
G01X0010079Y-019842D01*
G01X0010079Y-019842D02*
G01X0010079Y-019842D01*
G01X0027485Y-018361D02*
G01X0027207Y-018313D01*
G01X0028035Y-018396D02*
G01X0027762Y-018389D01*
G01X0023753Y-017873D02*
G01X0023620Y-018026D01*
G01X0021881Y-019318D02*
G01X0021696Y-019398D01*
G01X0024354Y-017027D02*
G01X0024242Y-017207D01*
G01X0027207Y-018313D02*
G01X0026928Y-018247D01*
G01X0019813Y-019801D02*
G01X0019579Y-019810D01*
G01X0025853Y-017801D02*
G01X0025604Y-017647D01*
G01X0022238Y-019139D02*
G01X0022062Y-019232D01*
G01X0025604Y-017647D02*
G01X0025366Y-017478D01*
G01X0022576Y-018935D02*
G01X0022409Y-019040D01*
G01X0021312Y-019537D02*
G01X0021112Y-019596D01*
G01X0026652Y-018162D02*
G01X0026379Y-018059D01*
G01X0022738Y-018823D02*
G01X0022576Y-018935D01*
G01X0021112Y-019596D02*
G01X0020908Y-019649D01*
G01X0024651Y-016769D02*
G01X0024567Y-016654D01*
G01X0025141Y-017293D02*
G01X0024932Y-017094D01*
G01X0020699Y-019694D02*
G01X0020485Y-019732D01*
G01X0020485Y-019732D02*
G01X0020266Y-019762D01*
G01X0024567Y-016654D02*
G01X0024354Y-017027D01*
G01X0024242Y-017207D02*
G01X0024125Y-017381D01*
G01X0022896Y-018705D02*
G01X0022738Y-018823D01*
G01X0022409Y-019040D02*
G01X0022238Y-019139D01*
G01X0020908Y-019649D02*
G01X0020699Y-019694D01*
G01X0020266Y-019762D02*
G01X0020042Y-019786D01*
G01X0019579Y-019810D02*
G01X0019339Y-019810D01*
G01X0019339Y-019810D02*
G01X0019094Y-019803D01*
G01X0027762Y-018389D02*
G01X0027485Y-018361D01*
G01X0024740Y-016880D02*
G01X0024651Y-016769D01*
G01X0024005Y-017550D02*
G01X0023881Y-017714D01*
G01X0022062Y-019232D02*
G01X0021881Y-019318D01*
G01X0024125Y-017381D02*
G01X0024005Y-017550D01*
G01X0023484Y-018173D02*
G01X0023343Y-018315D01*
G01X0023343Y-018315D02*
G01X0023199Y-018451D01*
G01X0026928Y-018247D02*
G01X0026652Y-018162D01*
G01X0026379Y-018059D02*
G01X0026112Y-017938D01*
G01X0025366Y-017478D02*
G01X0025141Y-017293D01*
G01X0024932Y-017094D02*
G01X0024740Y-016880D01*
G01X0023620Y-018026D02*
G01X0023484Y-018173D01*
G01X0023199Y-018451D02*
G01X0023049Y-018581D01*
G01X0028302Y-018383D02*
G01X0028035Y-018396D01*
G01X0026112Y-017938D02*
G01X0025853Y-017801D01*
G01X0023049Y-018581D02*
G01X0022896Y-018705D01*
G01X0021696Y-019398D02*
G01X0021506Y-019471D01*
G01X0021506Y-019471D02*
G01X0021312Y-019537D01*
G01X0024720Y-011857D02*
G01X0024888Y-011642D01*
G01X0022743Y-009847D02*
G01X0022907Y-009968D01*
G01X0022398Y-009620D02*
G01X0022574Y-009731D01*
G01X0022217Y-009515D02*
G01X0022398Y-009620D01*
G01X0024003Y-011095D02*
G01X0024113Y-011252D01*
G01X0024216Y-011411D02*
G01X0024313Y-011572D01*
G01X0021010Y-009017D02*
G01X0021225Y-009082D01*
G01X0020332Y-008865D02*
G01X0020563Y-008907D01*
G01X0010079Y-019842D02*
G01X0010079Y-008819D01*
G01X0022907Y-009968D02*
G01X0023065Y-010095D01*
G01X0024113Y-011252D02*
G01X0024216Y-011411D01*
G01X0022574Y-009731D02*
G01X0022743Y-009847D01*
G01X0024313Y-011572D02*
G01X0024404Y-011736D01*
G01X0024566Y-012068D02*
G01X0024720Y-011857D01*
G01X0023217Y-010226D02*
G01X0023364Y-010361D01*
G01X0021837Y-009322D02*
G01X0022030Y-009415D01*
G01X0021434Y-009155D02*
G01X0021638Y-009235D01*
G01X0024404Y-011736D02*
G01X0024488Y-011901D01*
G01X0023364Y-010361D02*
G01X0023504Y-010501D01*
G01X0024888Y-011642D02*
G01X0024985Y-011532D01*
G01X0021225Y-009082D02*
G01X0021434Y-009155D01*
G01X0010079Y-008819D02*
G01X0019094Y-008780D01*
G01X0023504Y-010501D02*
G01X0023638Y-010644D01*
G01X0025354Y-011181D02*
G01X0025787Y-008622D01*
G01X0025787Y-008622D02*
G01X0026945Y-010376D01*
G01X0020789Y-008958D02*
G01X0021010Y-009017D01*
G01X0026945Y-010376D02*
G01X0027079Y-010341D01*
G01X0027079Y-010341D02*
G01X0027215Y-010315D01*
G01X0025092Y-011419D02*
G01X0025215Y-011302D01*
G01X0027215Y-010315D02*
G01X0027358Y-010295D01*
G01X0027675Y-010274D02*
G01X0027855Y-010274D01*
G01X0021638Y-009235D02*
G01X0021837Y-009322D01*
G01X0027855Y-010274D02*
G01X0028277Y-010290D01*
G01X0028277Y-010290D02*
G01X0029764Y-008543D01*
G01X0029764Y-008543D02*
G01X0030175Y-011034D01*
G01X0023065Y-010095D02*
G01X0023217Y-010226D01*
G01X0024488Y-011901D02*
G01X0024566Y-012068D01*
G01X0023888Y-010942D02*
G01X0024003Y-011095D01*
G01X0019352Y-008779D02*
G01X0019605Y-008787D01*
G01X0030175Y-011034D02*
G01X0030372Y-011173D01*
G01X0019853Y-008804D02*
G01X0020095Y-008830D01*
G01X0019094Y-008780D02*
G01X0019352Y-008779D01*
G01X0020095Y-008830D02*
G01X0020332Y-008865D01*
G01X0020563Y-008907D02*
G01X0020789Y-008958D01*
G01X0022030Y-009415D02*
G01X0022217Y-009515D01*
G01X0023766Y-010791D02*
G01X0023888Y-010942D01*
G01X0024985Y-011532D02*
G01X0025092Y-011419D01*
G01X0027358Y-010295D02*
G01X0027510Y-010281D01*
G01X0030372Y-011173D02*
G01X0030485Y-011263D01*
G01X0027510Y-010281D02*
G01X0027675Y-010274D01*
G01X0030485Y-011263D02*
G01X0030607Y-011367D01*
G01X0030607Y-011367D02*
G01X0030733Y-011487D01*
G01X0025215Y-011302D02*
G01X0025354Y-011181D01*
G01X0019605Y-008787D02*
G01X0019853Y-008804D01*
G01X0023638Y-010644D02*
G01X0023766Y-010791D01*
G54D11*
G01X0027402Y-014488D03*
G54D12*
G01X0028402Y-014488D03*
G54D10*
G36*
G01X0019849Y-016939D02*
G01X0019857Y-016941D01*
G01X0019865Y-016943D01*
G01X0019873Y-016946D01*
G01X0019881Y-016949D01*
G01X0019888Y-016953D01*
G01X0019895Y-016959D01*
G01X0019901Y-016964D01*
G01X0019907Y-016970D01*
G01X0019912Y-016977D01*
G01X0019916Y-016985D01*
G01X0019920Y-016992D01*
G01X0019922Y-017000D01*
G01X0019925Y-017008D01*
G01X0019926Y-017017D01*
G01X0019926Y-017025D01*
G01X0019926Y-017227D01*
G01X0019926Y-017235D01*
G01X0019925Y-017244D01*
G01X0019922Y-017252D01*
G01X0019920Y-017260D01*
G01X0019916Y-017267D01*
G01X0019912Y-017275D01*
G01X0019907Y-017282D01*
G01X0019901Y-017288D01*
G01X0019895Y-017293D01*
G01X0019888Y-017298D01*
G01X0019881Y-017303D01*
G01X0019873Y-017306D01*
G01X0019865Y-017309D01*
G01X0019857Y-017311D01*
G01X0019849Y-017313D01*
G01X0019840Y-017313D01*
G01X0019668Y-017313D01*
G01X0019659Y-017313D01*
G01X0019651Y-017311D01*
G01X0019643Y-017309D01*
G01X0019635Y-017306D01*
G01X0019627Y-017303D01*
G01X0019620Y-017298D01*
G01X0019613Y-017293D01*
G01X0019607Y-017288D01*
G01X0019601Y-017282D01*
G01X0019596Y-017275D01*
G01X0019592Y-017267D01*
G01X0019588Y-017260D01*
G01X0019585Y-017252D01*
G01X0019583Y-017244D01*
G01X0019582Y-017235D01*
G01X0019582Y-017227D01*
G01X0019582Y-017025D01*
G01X0019582Y-017017D01*
G01X0019583Y-017008D01*
G01X0019585Y-017000D01*
G01X0019588Y-016992D01*
G01X0019592Y-016985D01*
G01X0019596Y-016977D01*
G01X0019601Y-016970D01*
G01X0019607Y-016964D01*
G01X0019613Y-016959D01*
G01X0019620Y-016953D01*
G01X0019627Y-016949D01*
G01X0019635Y-016946D01*
G01X0019643Y-016943D01*
G01X0019651Y-016941D01*
G01X0019659Y-016939D01*
G01X0019668Y-016939D01*
G01X0019840Y-016939D01*
G01X0019849Y-016939D01*
G01X0019849Y-016939D01*
G37*
G54D13*
G01X0019754Y-017126D03*
G54D10*
G36*
G01X0020370Y-016939D02*
G01X0020379Y-016941D01*
G01X0020387Y-016943D01*
G01X0020395Y-016946D01*
G01X0020402Y-016949D01*
G01X0020410Y-016953D01*
G01X0020416Y-016959D01*
G01X0020423Y-016964D01*
G01X0020428Y-016970D01*
G01X0020433Y-016977D01*
G01X0020438Y-016985D01*
G01X0020441Y-016992D01*
G01X0020444Y-017000D01*
G01X0020446Y-017008D01*
G01X0020447Y-017017D01*
G01X0020448Y-017025D01*
G01X0020448Y-017227D01*
G01X0020447Y-017235D01*
G01X0020446Y-017244D01*
G01X0020444Y-017252D01*
G01X0020441Y-017260D01*
G01X0020438Y-017267D01*
G01X0020433Y-017275D01*
G01X0020428Y-017282D01*
G01X0020423Y-017288D01*
G01X0020416Y-017293D01*
G01X0020410Y-017298D01*
G01X0020402Y-017303D01*
G01X0020395Y-017306D01*
G01X0020387Y-017309D01*
G01X0020379Y-017311D01*
G01X0020370Y-017313D01*
G01X0020362Y-017313D01*
G01X0020189Y-017313D01*
G01X0020181Y-017313D01*
G01X0020173Y-017311D01*
G01X0020164Y-017309D01*
G01X0020157Y-017306D01*
G01X0020149Y-017303D01*
G01X0020142Y-017298D01*
G01X0020135Y-017293D01*
G01X0020129Y-017288D01*
G01X0020123Y-017282D01*
G01X0020118Y-017275D01*
G01X0020114Y-017267D01*
G01X0020110Y-017260D01*
G01X0020107Y-017252D01*
G01X0020105Y-017244D01*
G01X0020104Y-017235D01*
G01X0020103Y-017227D01*
G01X0020103Y-017025D01*
G01X0020104Y-017017D01*
G01X0020105Y-017008D01*
G01X0020107Y-017000D01*
G01X0020110Y-016992D01*
G01X0020114Y-016985D01*
G01X0020118Y-016977D01*
G01X0020123Y-016970D01*
G01X0020129Y-016964D01*
G01X0020135Y-016959D01*
G01X0020142Y-016953D01*
G01X0020149Y-016949D01*
G01X0020157Y-016946D01*
G01X0020164Y-016943D01*
G01X0020173Y-016941D01*
G01X0020181Y-016939D01*
G01X0020189Y-016939D01*
G01X0020362Y-016939D01*
G01X0020370Y-016939D01*
G01X0020370Y-016939D01*
G37*
G54D13*
G01X0020276Y-017126D03*
G54D14*
G01X0015846Y-013091D03*
G54D15*
G01X0016846Y-013091D03*
G01X0015846Y-014091D03*
G01X0016846Y-014091D03*
G01X0015846Y-015091D03*
G01X0016846Y-015091D03*
G54D16*
G01X0019606Y-011811D03*
G01X0020453Y-011811D03*
G01X0019980Y-011024D03*
G01X0020079Y-015059D03*
G01X0020453Y-015846D03*
G01X0019705Y-015846D03*
G54D10*
G36*
G01X0018175Y-013888D02*
G01X0018184Y-013889D01*
G01X0018192Y-013892D01*
G01X0018200Y-013894D01*
G01X0018207Y-013898D01*
G01X0018215Y-013902D01*
G01X0018221Y-013907D01*
G01X0018228Y-013913D01*
G01X0018233Y-013919D01*
G01X0018238Y-013926D01*
G01X0018243Y-013933D01*
G01X0018246Y-013941D01*
G01X0018249Y-013949D01*
G01X0018251Y-013957D01*
G01X0018253Y-013965D01*
G01X0018253Y-013974D01*
G01X0018253Y-014176D01*
G01X0018253Y-014184D01*
G01X0018251Y-014192D01*
G01X0018249Y-014201D01*
G01X0018246Y-014209D01*
G01X0018243Y-014216D01*
G01X0018238Y-014224D01*
G01X0018233Y-014230D01*
G01X0018228Y-014237D01*
G01X0018221Y-014242D01*
G01X0018215Y-014247D01*
G01X0018207Y-014252D01*
G01X0018200Y-014255D01*
G01X0018192Y-014258D01*
G01X0018184Y-014260D01*
G01X0018175Y-014261D01*
G01X0018167Y-014262D01*
G01X0017995Y-014262D01*
G01X0017986Y-014261D01*
G01X0017978Y-014260D01*
G01X0017970Y-014258D01*
G01X0017962Y-014255D01*
G01X0017954Y-014252D01*
G01X0017947Y-014247D01*
G01X0017940Y-014242D01*
G01X0017934Y-014237D01*
G01X0017928Y-014230D01*
G01X0017923Y-014224D01*
G01X0017919Y-014216D01*
G01X0017915Y-014209D01*
G01X0017912Y-014201D01*
G01X0017910Y-014192D01*
G01X0017909Y-014184D01*
G01X0017908Y-014176D01*
G01X0017908Y-013974D01*
G01X0017909Y-013965D01*
G01X0017910Y-013957D01*
G01X0017912Y-013949D01*
G01X0017915Y-013941D01*
G01X0017919Y-013933D01*
G01X0017923Y-013926D01*
G01X0017928Y-013919D01*
G01X0017934Y-013913D01*
G01X0017940Y-013907D01*
G01X0017947Y-013902D01*
G01X0017954Y-013898D01*
G01X0017962Y-013894D01*
G01X0017970Y-013892D01*
G01X0017978Y-013889D01*
G01X0017986Y-013888D01*
G01X0017995Y-013888D01*
G01X0018167Y-013888D01*
G01X0018175Y-013888D01*
G01X0018175Y-013888D01*
G37*
G54D13*
G01X0018081Y-014075D03*
G54D10*
G36*
G01X0018795Y-013888D02*
G01X0018804Y-013889D01*
G01X0018812Y-013892D01*
G01X0018820Y-013894D01*
G01X0018828Y-013898D01*
G01X0018835Y-013902D01*
G01X0018842Y-013907D01*
G01X0018848Y-013913D01*
G01X0018853Y-013919D01*
G01X0018859Y-013926D01*
G01X0018863Y-013933D01*
G01X0018866Y-013941D01*
G01X0018869Y-013949D01*
G01X0018871Y-013957D01*
G01X0018873Y-013965D01*
G01X0018873Y-013974D01*
G01X0018873Y-014176D01*
G01X0018873Y-014184D01*
G01X0018871Y-014192D01*
G01X0018869Y-014201D01*
G01X0018866Y-014209D01*
G01X0018863Y-014216D01*
G01X0018859Y-014224D01*
G01X0018853Y-014230D01*
G01X0018848Y-014237D01*
G01X0018842Y-014242D01*
G01X0018835Y-014247D01*
G01X0018828Y-014252D01*
G01X0018820Y-014255D01*
G01X0018812Y-014258D01*
G01X0018804Y-014260D01*
G01X0018795Y-014261D01*
G01X0018787Y-014262D01*
G01X0018615Y-014262D01*
G01X0018606Y-014261D01*
G01X0018598Y-014260D01*
G01X0018590Y-014258D01*
G01X0018582Y-014255D01*
G01X0018574Y-014252D01*
G01X0018567Y-014247D01*
G01X0018560Y-014242D01*
G01X0018554Y-014237D01*
G01X0018548Y-014230D01*
G01X0018543Y-014224D01*
G01X0018539Y-014216D01*
G01X0018535Y-014209D01*
G01X0018532Y-014201D01*
G01X0018530Y-014192D01*
G01X0018529Y-014184D01*
G01X0018529Y-014176D01*
G01X0018529Y-013974D01*
G01X0018529Y-013965D01*
G01X0018530Y-013957D01*
G01X0018532Y-013949D01*
G01X0018535Y-013941D01*
G01X0018539Y-013933D01*
G01X0018543Y-013926D01*
G01X0018548Y-013919D01*
G01X0018554Y-013913D01*
G01X0018560Y-013907D01*
G01X0018567Y-013902D01*
G01X0018574Y-013898D01*
G01X0018582Y-013894D01*
G01X0018590Y-013892D01*
G01X0018598Y-013889D01*
G01X0018606Y-013888D01*
G01X0018615Y-013888D01*
G01X0018787Y-013888D01*
G01X0018795Y-013888D01*
G01X0018795Y-013888D01*
G37*
G54D13*
G01X0018701Y-014075D03*
G54D10*
G36*
G01X0017713Y-011428D02*
G01X0017721Y-011429D01*
G01X0017729Y-011431D01*
G01X0017737Y-011434D01*
G01X0017745Y-011437D01*
G01X0017752Y-011442D01*
G01X0017759Y-011447D01*
G01X0017765Y-011452D01*
G01X0017771Y-011459D01*
G01X0017776Y-011465D01*
G01X0017780Y-011473D01*
G01X0017784Y-011480D01*
G01X0017787Y-011488D01*
G01X0017789Y-011496D01*
G01X0017790Y-011505D01*
G01X0017790Y-011513D01*
G01X0017790Y-011715D01*
G01X0017790Y-011724D01*
G01X0017789Y-011732D01*
G01X0017787Y-011740D01*
G01X0017784Y-011748D01*
G01X0017780Y-011756D01*
G01X0017776Y-011763D01*
G01X0017771Y-011770D01*
G01X0017765Y-011776D01*
G01X0017759Y-011782D01*
G01X0017752Y-011787D01*
G01X0017745Y-011791D01*
G01X0017737Y-011795D01*
G01X0017729Y-011797D01*
G01X0017721Y-011800D01*
G01X0017713Y-011801D01*
G01X0017704Y-011801D01*
G01X0017532Y-011801D01*
G01X0017524Y-011801D01*
G01X0017515Y-011800D01*
G01X0017507Y-011797D01*
G01X0017499Y-011795D01*
G01X0017491Y-011791D01*
G01X0017484Y-011787D01*
G01X0017477Y-011782D01*
G01X0017471Y-011776D01*
G01X0017465Y-011770D01*
G01X0017460Y-011763D01*
G01X0017456Y-011756D01*
G01X0017452Y-011748D01*
G01X0017450Y-011740D01*
G01X0017448Y-011732D01*
G01X0017446Y-011724D01*
G01X0017446Y-011715D01*
G01X0017446Y-011513D01*
G01X0017446Y-011505D01*
G01X0017448Y-011496D01*
G01X0017450Y-011488D01*
G01X0017452Y-011480D01*
G01X0017456Y-011473D01*
G01X0017460Y-011465D01*
G01X0017465Y-011459D01*
G01X0017471Y-011452D01*
G01X0017477Y-011447D01*
G01X0017484Y-011442D01*
G01X0017491Y-011437D01*
G01X0017499Y-011434D01*
G01X0017507Y-011431D01*
G01X0017515Y-011429D01*
G01X0017524Y-011428D01*
G01X0017532Y-011427D01*
G01X0017704Y-011427D01*
G01X0017713Y-011428D01*
G01X0017713Y-011428D01*
G37*
G54D13*
G01X0017618Y-011614D03*
G54D10*
G36*
G01X0017093Y-011428D02*
G01X0017101Y-011429D01*
G01X0017109Y-011431D01*
G01X0017117Y-011434D01*
G01X0017125Y-011437D01*
G01X0017132Y-011442D01*
G01X0017139Y-011447D01*
G01X0017145Y-011452D01*
G01X0017151Y-011459D01*
G01X0017156Y-011465D01*
G01X0017160Y-011473D01*
G01X0017164Y-011480D01*
G01X0017167Y-011488D01*
G01X0017169Y-011496D01*
G01X0017170Y-011505D01*
G01X0017170Y-011513D01*
G01X0017170Y-011715D01*
G01X0017170Y-011724D01*
G01X0017169Y-011732D01*
G01X0017167Y-011740D01*
G01X0017164Y-011748D01*
G01X0017160Y-011756D01*
G01X0017156Y-011763D01*
G01X0017151Y-011770D01*
G01X0017145Y-011776D01*
G01X0017139Y-011782D01*
G01X0017132Y-011787D01*
G01X0017125Y-011791D01*
G01X0017117Y-011795D01*
G01X0017109Y-011797D01*
G01X0017101Y-011800D01*
G01X0017093Y-011801D01*
G01X0017084Y-011801D01*
G01X0016912Y-011801D01*
G01X0016903Y-011801D01*
G01X0016895Y-011800D01*
G01X0016887Y-011797D01*
G01X0016879Y-011795D01*
G01X0016871Y-011791D01*
G01X0016864Y-011787D01*
G01X0016857Y-011782D01*
G01X0016851Y-011776D01*
G01X0016845Y-011770D01*
G01X0016840Y-011763D01*
G01X0016836Y-011756D01*
G01X0016832Y-011748D01*
G01X0016829Y-011740D01*
G01X0016827Y-011732D01*
G01X0016826Y-011724D01*
G01X0016826Y-011715D01*
G01X0016826Y-011513D01*
G01X0016826Y-011505D01*
G01X0016827Y-011496D01*
G01X0016829Y-011488D01*
G01X0016832Y-011480D01*
G01X0016836Y-011473D01*
G01X0016840Y-011465D01*
G01X0016845Y-011459D01*
G01X0016851Y-011452D01*
G01X0016857Y-011447D01*
G01X0016864Y-011442D01*
G01X0016871Y-011437D01*
G01X0016879Y-011434D01*
G01X0016887Y-011431D01*
G01X0016895Y-011429D01*
G01X0016903Y-011428D01*
G01X0016912Y-011427D01*
G01X0017084Y-011427D01*
G01X0017093Y-011428D01*
G01X0017093Y-011428D01*
G37*
G54D13*
G01X0016998Y-011614D03*
G54D10*
G36*
G01X0020370Y-012904D02*
G01X0020379Y-012905D01*
G01X0020387Y-012907D01*
G01X0020395Y-012910D01*
G01X0020402Y-012914D01*
G01X0020410Y-012918D01*
G01X0020416Y-012923D01*
G01X0020423Y-012929D01*
G01X0020428Y-012935D01*
G01X0020433Y-012942D01*
G01X0020438Y-012949D01*
G01X0020441Y-012957D01*
G01X0020444Y-012965D01*
G01X0020446Y-012973D01*
G01X0020447Y-012981D01*
G01X0020448Y-012990D01*
G01X0020448Y-013191D01*
G01X0020447Y-013200D01*
G01X0020446Y-013208D01*
G01X0020444Y-013216D01*
G01X0020441Y-013224D01*
G01X0020438Y-013232D01*
G01X0020433Y-013239D01*
G01X0020428Y-013246D01*
G01X0020423Y-013252D01*
G01X0020416Y-013258D01*
G01X0020410Y-013263D01*
G01X0020402Y-013267D01*
G01X0020395Y-013271D01*
G01X0020387Y-013274D01*
G01X0020379Y-013276D01*
G01X0020370Y-013277D01*
G01X0020362Y-013278D01*
G01X0020189Y-013278D01*
G01X0020181Y-013277D01*
G01X0020173Y-013276D01*
G01X0020164Y-013274D01*
G01X0020157Y-013271D01*
G01X0020149Y-013267D01*
G01X0020142Y-013263D01*
G01X0020135Y-013258D01*
G01X0020129Y-013252D01*
G01X0020123Y-013246D01*
G01X0020118Y-013239D01*
G01X0020114Y-013232D01*
G01X0020110Y-013224D01*
G01X0020107Y-013216D01*
G01X0020105Y-013208D01*
G01X0020104Y-013200D01*
G01X0020103Y-013191D01*
G01X0020103Y-012990D01*
G01X0020104Y-012981D01*
G01X0020105Y-012973D01*
G01X0020107Y-012965D01*
G01X0020110Y-012957D01*
G01X0020114Y-012949D01*
G01X0020118Y-012942D01*
G01X0020123Y-012935D01*
G01X0020129Y-012929D01*
G01X0020135Y-012923D01*
G01X0020142Y-012918D01*
G01X0020149Y-012914D01*
G01X0020157Y-012910D01*
G01X0020164Y-012907D01*
G01X0020173Y-012905D01*
G01X0020181Y-012904D01*
G01X0020189Y-012904D01*
G01X0020362Y-012904D01*
G01X0020370Y-012904D01*
G01X0020370Y-012904D01*
G37*
G54D13*
G01X0020276Y-013091D03*
G54D10*
G36*
G01X0019750Y-012904D02*
G01X0019758Y-012905D01*
G01X0019767Y-012907D01*
G01X0019775Y-012910D01*
G01X0019782Y-012914D01*
G01X0019789Y-012918D01*
G01X0019796Y-012923D01*
G01X0019803Y-012929D01*
G01X0019808Y-012935D01*
G01X0019813Y-012942D01*
G01X0019818Y-012949D01*
G01X0019821Y-012957D01*
G01X0019824Y-012965D01*
G01X0019826Y-012973D01*
G01X0019827Y-012981D01*
G01X0019828Y-012990D01*
G01X0019828Y-013191D01*
G01X0019827Y-013200D01*
G01X0019826Y-013208D01*
G01X0019824Y-013216D01*
G01X0019821Y-013224D01*
G01X0019818Y-013232D01*
G01X0019813Y-013239D01*
G01X0019808Y-013246D01*
G01X0019803Y-013252D01*
G01X0019796Y-013258D01*
G01X0019789Y-013263D01*
G01X0019782Y-013267D01*
G01X0019775Y-013271D01*
G01X0019767Y-013274D01*
G01X0019758Y-013276D01*
G01X0019750Y-013277D01*
G01X0019742Y-013278D01*
G01X0019569Y-013278D01*
G01X0019561Y-013277D01*
G01X0019553Y-013276D01*
G01X0019544Y-013274D01*
G01X0019536Y-013271D01*
G01X0019529Y-013267D01*
G01X0019522Y-013263D01*
G01X0019515Y-013258D01*
G01X0019508Y-013252D01*
G01X0019503Y-013246D01*
G01X0019498Y-013239D01*
G01X0019493Y-013232D01*
G01X0019490Y-013224D01*
G01X0019487Y-013216D01*
G01X0019485Y-013208D01*
G01X0019484Y-013200D01*
G01X0019483Y-013191D01*
G01X0019483Y-012990D01*
G01X0019484Y-012981D01*
G01X0019485Y-012973D01*
G01X0019487Y-012965D01*
G01X0019490Y-012957D01*
G01X0019493Y-012949D01*
G01X0019498Y-012942D01*
G01X0019503Y-012935D01*
G01X0019508Y-012929D01*
G01X0019515Y-012923D01*
G01X0019522Y-012918D01*
G01X0019529Y-012914D01*
G01X0019536Y-012910D01*
G01X0019544Y-012907D01*
G01X0019553Y-012905D01*
G01X0019561Y-012904D01*
G01X0019569Y-012904D01*
G01X0019742Y-012904D01*
G01X0019750Y-012904D01*
G01X0019750Y-012904D01*
G37*
G54D13*
G01X0019656Y-013091D03*
G54D10*
G36*
G01X0016994Y-016743D02*
G01X0017003Y-016744D01*
G01X0017011Y-016746D01*
G01X0017019Y-016749D01*
G01X0017026Y-016752D01*
G01X0017034Y-016757D01*
G01X0017040Y-016762D01*
G01X0017047Y-016767D01*
G01X0017052Y-016774D01*
G01X0017057Y-016780D01*
G01X0017062Y-016788D01*
G01X0017065Y-016795D01*
G01X0017068Y-016803D01*
G01X0017070Y-016811D01*
G01X0017071Y-016820D01*
G01X0017072Y-016828D01*
G01X0017072Y-017030D01*
G01X0017071Y-017038D01*
G01X0017070Y-017047D01*
G01X0017068Y-017055D01*
G01X0017065Y-017063D01*
G01X0017062Y-017071D01*
G01X0017057Y-017078D01*
G01X0017052Y-017085D01*
G01X0017047Y-017091D01*
G01X0017040Y-017097D01*
G01X0017034Y-017102D01*
G01X0017026Y-017106D01*
G01X0017019Y-017110D01*
G01X0017011Y-017112D01*
G01X0017003Y-017114D01*
G01X0016994Y-017116D01*
G01X0016986Y-017116D01*
G01X0016813Y-017116D01*
G01X0016805Y-017116D01*
G01X0016797Y-017114D01*
G01X0016788Y-017112D01*
G01X0016781Y-017110D01*
G01X0016773Y-017106D01*
G01X0016766Y-017102D01*
G01X0016759Y-017097D01*
G01X0016753Y-017091D01*
G01X0016747Y-017085D01*
G01X0016742Y-017078D01*
G01X0016738Y-017071D01*
G01X0016734Y-017063D01*
G01X0016731Y-017055D01*
G01X0016729Y-017047D01*
G01X0016728Y-017038D01*
G01X0016727Y-017030D01*
G01X0016727Y-016828D01*
G01X0016728Y-016820D01*
G01X0016729Y-016811D01*
G01X0016731Y-016803D01*
G01X0016734Y-016795D01*
G01X0016738Y-016788D01*
G01X0016742Y-016780D01*
G01X0016747Y-016774D01*
G01X0016753Y-016767D01*
G01X0016759Y-016762D01*
G01X0016766Y-016757D01*
G01X0016773Y-016752D01*
G01X0016781Y-016749D01*
G01X0016788Y-016746D01*
G01X0016797Y-016744D01*
G01X0016805Y-016743D01*
G01X0016813Y-016742D01*
G01X0016986Y-016742D01*
G01X0016994Y-016743D01*
G01X0016994Y-016743D01*
G37*
G54D13*
G01X0016900Y-016929D03*
G54D10*
G36*
G01X0017614Y-016743D02*
G01X0017623Y-016744D01*
G01X0017631Y-016746D01*
G01X0017639Y-016749D01*
G01X0017646Y-016752D01*
G01X0017654Y-016757D01*
G01X0017660Y-016762D01*
G01X0017667Y-016767D01*
G01X0017672Y-016774D01*
G01X0017677Y-016780D01*
G01X0017682Y-016788D01*
G01X0017685Y-016795D01*
G01X0017688Y-016803D01*
G01X0017690Y-016811D01*
G01X0017692Y-016820D01*
G01X0017692Y-016828D01*
G01X0017692Y-017030D01*
G01X0017692Y-017038D01*
G01X0017690Y-017047D01*
G01X0017688Y-017055D01*
G01X0017685Y-017063D01*
G01X0017682Y-017071D01*
G01X0017677Y-017078D01*
G01X0017672Y-017085D01*
G01X0017667Y-017091D01*
G01X0017660Y-017097D01*
G01X0017654Y-017102D01*
G01X0017646Y-017106D01*
G01X0017639Y-017110D01*
G01X0017631Y-017112D01*
G01X0017623Y-017114D01*
G01X0017614Y-017116D01*
G01X0017606Y-017116D01*
G01X0017434Y-017116D01*
G01X0017425Y-017116D01*
G01X0017417Y-017114D01*
G01X0017409Y-017112D01*
G01X0017401Y-017110D01*
G01X0017393Y-017106D01*
G01X0017386Y-017102D01*
G01X0017379Y-017097D01*
G01X0017373Y-017091D01*
G01X0017367Y-017085D01*
G01X0017362Y-017078D01*
G01X0017358Y-017071D01*
G01X0017354Y-017063D01*
G01X0017351Y-017055D01*
G01X0017349Y-017047D01*
G01X0017348Y-017038D01*
G01X0017347Y-017030D01*
G01X0017347Y-016828D01*
G01X0017348Y-016820D01*
G01X0017349Y-016811D01*
G01X0017351Y-016803D01*
G01X0017354Y-016795D01*
G01X0017358Y-016788D01*
G01X0017362Y-016780D01*
G01X0017367Y-016774D01*
G01X0017373Y-016767D01*
G01X0017379Y-016762D01*
G01X0017386Y-016757D01*
G01X0017393Y-016752D01*
G01X0017401Y-016749D01*
G01X0017409Y-016746D01*
G01X0017417Y-016744D01*
G01X0017425Y-016743D01*
G01X0017434Y-016742D01*
G01X0017606Y-016742D01*
G01X0017614Y-016743D01*
G01X0017614Y-016743D01*
G37*
G54D13*
G01X0017520Y-016929D03*
G54D17*
G01X0011319Y-013169D03*
G01X0011319Y-010039D03*
G01X0013091Y-013169D03*
G01X0013091Y-010039D03*
G01X0013091Y-015374D03*
G01X0013091Y-018504D03*
G01X0011319Y-015374D03*
G01X0011319Y-018504D03*
G54D18*
G01X0020965Y-013091D03*
G01X0020965Y-015846D03*
G01X0020965Y-011024D03*
G01X0018898Y-013287D03*
G54D19*
G01X0020453Y-016949D02*
G01X0020276Y-017126D01*
G01X0020453Y-015846D02*
G01X0020453Y-016949D01*
G01X0020276Y-013091D02*
G01X0020965Y-013091D01*
G01X0020965Y-013091D02*
G01X0020965Y-013091D01*
G01X0020453Y-015846D02*
G01X0020730Y-015846D01*
G01X0020730Y-015846D02*
G01X0020965Y-015846D01*
G01X0020965Y-015846D02*
G01X0020965Y-015846D01*
G01X0017831Y-014075D02*
G01X0016846Y-013091D01*
G01X0018081Y-014075D02*
G01X0017831Y-014075D01*
G01X0011319Y-010039D02*
G01X0011319Y-013169D01*
G01X0011319Y-015374D02*
G01X0011319Y-018504D01*
G01X0016846Y-012617D02*
G01X0016532Y-012303D01*
G01X0016846Y-013091D02*
G01X0016846Y-012617D01*
G01X0016532Y-012303D02*
G01X0015354Y-012303D01*
G01X0013386Y-014272D02*
G01X0011319Y-014272D01*
G01X0015354Y-012303D02*
G01X0013386Y-014272D01*
G01X0011319Y-013169D02*
G01X0011319Y-014272D01*
G01X0011319Y-014272D02*
G01X0011319Y-015374D01*
G01X0019606Y-011811D02*
G01X0018307Y-011811D01*
G01X0018307Y-011811D02*
G01X0018110Y-011614D01*
G01X0018110Y-011614D02*
G01X0017618Y-011614D01*
G01X0019606Y-013041D02*
G01X0019656Y-013091D01*
G01X0019606Y-011811D02*
G01X0019606Y-013041D01*
G01X0020079Y-015059D02*
G01X0020669Y-015059D01*
G01X0020669Y-015059D02*
G01X0021358Y-014370D01*
G01X0021358Y-014370D02*
G01X0021358Y-012008D01*
G01X0021161Y-011811D02*
G01X0020453Y-011811D01*
G01X0021358Y-012008D02*
G01X0021161Y-011811D01*
G01X0019754Y-017126D02*
G01X0018307Y-017126D01*
G01X0018307Y-017126D02*
G01X0018110Y-016929D01*
G01X0018110Y-016929D02*
G01X0017520Y-016929D01*
G01X0019705Y-017077D02*
G01X0019754Y-017126D01*
G01X0019705Y-015846D02*
G01X0019705Y-017077D01*
G01X0016998Y-011614D02*
G01X0013386Y-011614D01*
G01X0013386Y-011614D02*
G01X0013091Y-011614D01*
G01X0013091Y-010039D02*
G01X0013091Y-011614D01*
G01X0013091Y-011614D02*
G01X0013091Y-013169D01*
G01X0016900Y-016929D02*
G01X0013386Y-016929D01*
G01X0013386Y-016929D02*
G01X0013091Y-016929D01*
G01X0013091Y-015374D02*
G01X0013091Y-016929D01*
G01X0013091Y-016929D02*
G01X0013091Y-018504D01*
G01X0019980Y-011024D02*
G01X0020258Y-011024D01*
G01X0020258Y-011024D02*
G01X0020374Y-011024D01*
G01X0020374Y-011024D02*
G01X0020866Y-011024D01*
G01X0020866Y-011024D02*
G01X0020965Y-011024D01*
G01X0020965Y-011024D02*
G01X0020965Y-011024D01*
G01X0018701Y-013484D02*
G01X0018898Y-013287D01*
G01X0018701Y-014075D02*
G01X0018701Y-013484D01*
M02*
